<?xml version="1.0" encoding="utf-8"?>
<!-- Generator: Adobe Illustrator 19.0.0, SVG Export Plug-In . SVG Version: 6.00 Build 0)  -->
<svg version="1.1" xmlns="http://www.w3.org/2000/svg" xmlns:xlink="http://www.w3.org/1999/xlink" x="0px" y="0px" width="501.8px"
     height="563px" viewBox="0 0 501.8 563" style="enable-background:new 0 0 501.8 563;" xml:space="preserve">
<style type="text/css">
	.st0{fill:#FFFFFF;}
	.st1{fill:#F18221;}
	.st2{fill:#EA186C;}
</style>
    <g id="Outlines">
	<g id="Text">
		<g id="HENS_1_">
			<path id="S_5_" class="st0" d="M501.7,340.5c-0.3-5.6-3.1-9.5-7.7-10.5c-0.8-0.2-1.6-0.3-2.3-0.3c-6.6,0-9.4,6.5-11.5,11.3
				c-1.1,2.6-2.4,5.5-3.7,6.4l-0.2,0.1c-0.1,0.1-0.2,0.2-0.3,0.2c-0.7-0.8-1.7-3.5-0.5-6.8c0.7-1.9,1.3-2.8,2.6-4.6
				c0.7-0.9,1-2.1,0.8-3.2c-0.2-1.1-0.8-2.2-1.7-2.8c-0.8-0.6-1.7-0.9-2.6-0.9c-1.4,0-2.6,0.6-3.5,1.7c-1.6,2.1-2.7,3.7-3.8,6.8
				c-2.3,6.3-0.7,13.8,3.7,17c1.4,1,3.1,1.6,4.8,1.6c2,0,4-0.7,5.7-2.1c3.2-2.3,4.9-6.2,6.6-10c0.9-2.1,2.6-6,3.7-6
				c0.1,0,0.2,0,0.3,0c0.5,0.1,0.9,1.1,1,2.6c0.3,5.1-2.8,11.1-5.3,12c-2.2,0.8-3.4,3.3-2.6,5.5c0.6,1.7,2.2,2.9,4.1,2.9
				c0.5,0,1-0.1,1.4-0.2c6-2.1,9.8-9.7,10.8-15.9C501.7,343.6,501.8,342,501.7,340.5z"/>
            <path id="N_1_" class="st0" d="M493.6,372c-0.3-0.7-0.7-1.2-1.3-1.7c-0.5-0.4-1-0.8-1.6-1c-3.8-1.3-7.8-2.7-11.9-4.1l-0.8-0.3
				c-3.5-1.2-7-2.5-10.4-3.6c-0.5-0.2-0.9-0.2-1.4-0.2c-1.8,0-3.5,1.2-4.1,2.9c-0.8,2.3,0.4,4.7,2.7,5.5c3.3,1.2,6.8,2.4,10.4,3.6
				l3.1,1.1c-1.9,1-3.7,2-5.5,2.9c-5.5,2.9-11.1,6-16.2,7.9c-1.6,0.6-2.7,2.2-2.8,3.9c-0.3,2,0.9,3.9,2.8,4.6
				c3.1,1.2,6.4,2.2,9.6,3.2l0.1,0c4.4,1.4,9,2.9,13,4.6c0.5,0.2,1.1,0.4,1.7,0.4c1.7,0,3.3-1,4-2.6c0.1-0.1,0.1-0.2,0.1-0.3
				c0.7-2.1-0.3-4.5-2.4-5.4c-4.2-1.8-8.9-3.3-13.4-4.8c2.6-1.3,5.2-2.7,7.5-4c4.8-2.6,9.8-5.3,14.2-7.1c1.1-0.5,2-1.4,2.4-2.6
				C494.1,374,494,372.9,493.6,372z"/>
            <path id="E_3_" class="st0" d="M478.2,407.9c-0.7-0.5-1.6-0.8-2.6-0.8c-1.4,0-2.7,0.7-3.5,1.8c-2.4,3.3-6.6,11.4-9.3,16.9
				l-0.6,1.2c-1-0.6-2.2-1.2-3.2-1.8c1.5-3.1,2.9-5.7,4.5-8.6c1.3-2.4,2.7-4.9,4.4-8.1c1.1-2.1,0.2-4.7-1.9-5.8
				c-0.6-0.3-1.3-0.5-2-0.5c-1.6,0-3.1,0.9-3.9,2.4c-1.6,3.1-3,5.6-4.3,8c-1.5,2.7-3,5.3-4.5,8.5c-1.1-0.6-2.2-1.2-3.1-1.7
				c0.4-0.8,1-1.8,1.6-2.8l0.1-0.1c1.5-2.7,3.5-6.3,6.2-11.3c1.1-2.1,0.3-4.7-1.8-5.8c-0.6-0.3-1.3-0.5-2.1-0.5
				c-1.6,0-3.1,0.9-3.8,2.3c-2.6,4.8-4.6,8.4-6.1,11.1l-0.2,0.3c-4.2,7.6-4.5,8.1-3.8,10.2c0.4,1.2,1.2,2.1,2.3,2.7
				c3.7,1.7,7.9,4.1,11.7,6.2c4,2.2,7.5,4.2,10,5.2c0.6,0.3,1.2,0.4,1.8,0.4c2.6,0,3.8-2.3,4.6-3.7c0.5-0.9,1.1-2.2,1.9-3.7
				c2.5-4.9,6.6-13,8.6-15.7c0.1-0.2,0.2-0.3,0.3-0.5C480.5,411.6,480,409.2,478.2,407.9z"/>
            <path id="H_3_" class="st0" d="M459.6,445.7c-0.2-1.1-0.9-2.1-1.8-2.8c-4.4-3-16.2-12-20-15c-0.8-0.6-1.7-0.9-2.6-0.9
				c-1.4,0-2.6,0.6-3.5,1.7c-1.4,1.9-1,4.6,0.8,6c1.4,1.1,3.8,2.9,6.5,5c-2.5,3.2-5.2,6.9-7.6,10.2c-0.9,1.3-1.9,2.6-2.8,3.8l-6-4.5
				c-0.8-0.6-1.6-0.9-2.6-0.9c-1.3,0-2.6,0.6-3.4,1.7l-0.1,0.1c-0.7,0.9-1,2.1-0.8,3.2c0.2,1.1,0.8,2.2,1.7,2.8l6.2,4.6
				c4.6,3.4,9.6,7.1,13.6,10.1c0.8,0.6,1.6,0.9,2.6,0.9c1.4,0,2.7-0.6,3.5-1.7c0.7-0.9,1-2.1,0.8-3.2c-0.2-1.1-0.8-2.2-1.7-2.8
				c-2.1-1.6-4.4-3.3-6.9-5.1c0.9-1.2,1.7-2.4,2.6-3.6l0.2-0.3c2.5-3.5,5.1-7,7.5-10.1c3.2,2.4,5.5,4.1,7,5.1
				c0.7,0.5,1.6,0.8,2.4,0.8c1.4,0,2.7-0.6,3.5-1.7c0-0.1,0.1-0.1,0.1-0.2C459.5,448,459.8,446.9,459.6,445.7z"/>
		</g>
        <g id="FOR_1_">
			<path id="R_5_" class="st0" d="M421.8,493.8c-0.5-1.9-2.2-3.2-4.2-3.2c-0.4,0-0.7,0-1.1,0.1c-0.8,0.2-1.7,0.3-2.9,0.3
				c-1.5,0-3.1-0.2-4.8-0.4c-0.5-0.1-0.9-0.1-1.4-0.2c0.8-1.6,1.3-3.1,1.5-4.6c0.4-3-0.5-5.8-2.5-8.3c-1.9-2.4-4.6-3.7-7.7-3.8
				l-0.3,0c-5.9,0-13,4.6-21.1,13.5c-1.5,1.7-1.5,4.2,0,5.8c0.1,0.2,0.2,0.3,0.4,0.5c2.7,3.2,5.7,7,8.6,10.7l0.1,0.2
				c1.9,2.4,4.2,5.3,6.3,7.9c0.8,1,2,1.6,3.4,1.6c1,0,2-0.3,2.7-1c1.8-1.5,2.1-4.2,0.6-6.1c-1.1-1.4-2.2-2.8-3.4-4.3
				c0.3-0.3,0.7-0.5,1-0.8c1.2-1,2.3-1.9,3.2-2.8c0.8-0.2,1.7-0.3,2.7-0.3c1.5,0,3.1,0.2,4.8,0.4c1.9,0.2,3.8,0.4,5.8,0.4
				c1.9,0,3.5-0.2,5-0.6c0.6-0.2,1.2-0.4,1.6-0.8C421.7,497.2,422.3,495.4,421.8,493.8z M400.4,485c-0.1,1.2-1.4,4.7-9.6,11.2
				c-0.9-1.1-1.9-2.3-2.8-3.3c-0.5-0.6-1.1-1.3-1.6-1.9c4.8-4.8,9.1-7.5,12.1-7.5h0.1c0.2,0,0.8,0,0.8,0c0.3,0,0.4,0,0.5,0.1
				C400.4,484.4,400.5,484.5,400.4,485z"/>
            <path id="O_1_" class="st0" d="M379.2,504.1c-2.4-3.6-7.6-7.9-14.2-7.9c-0.8,0-1.7,0.1-2.5,0.2c-8,1.3-14.1,7.9-15,16
				c-0.9,8.6,4,16.4,12,19.2c1.8,0.6,3.6,0.9,5.5,0.9c2.8,0,5.5-0.7,8-2.1c2.8-1.6,5.2-3.9,7-6.9c0.4-0.7,0.8-1.5,1.1-2.2
				C383.4,515.8,382.7,509.4,379.2,504.1z M365,523.9c-0.9,0-1.8-0.2-2.8-0.5c-3.4-1.2-6.7-4.8-6.2-10.1c0.3-3.1,2.2-5.8,4.8-7.3
				c0.9-0.5,1.9-0.9,3-1.1c0.4-0.1,0.8-0.1,1.1-0.1c3.2,0,5.8,2.2,7,4c1.9,2.8,2.3,6.2,1.1,9c-0.2,0.4-0.3,0.7-0.6,1.1
				C370.6,522.1,367.9,523.9,365,523.9z"/>
            <path id="F_3_" class="st0" d="M320.4,516c-0.5,0.2-0.9,0.3-1.4,0.5c-0.4,0.2-0.9,0.3-1.4,0.5c-0.6,0.2-1.2,0.4-1.9,0.7
				c-0.5,0.2-1,0.4-1.6,0.5c-0.4,0.1-0.9,0.3-1.3,0.4c-0.8,0.3-1.9,0.6-2.7,1.7c-1.5,1.9-0.7,3.9-0.4,4.7c0.2,0.4,0.3,0.9,0.5,1.4
				l0.2,0.5c0.1,0.3,0.2,0.7,0.4,1c0.1,0.2,0.2,0.4,0.2,0.6c0.1,0.4,0.3,0.7,0.4,1.1c0.2,0.6,0.5,1.3,0.7,1.9l0.5,1.4
				c0.3,0.8,0.6,1.6,0.9,2.4c0.1,0.2,0.1,0.3,0.2,0.6c0.1,0.1,0.1,0.2,0.2,0.4c0.1,0.3,0.2,0.7,0.4,1.1c0.1,0.4,0.3,0.8,0.4,1.2
				c0.1,0.2,0.1,0.3,0.2,0.5c0.2,0.5,0.4,1,0.6,1.5l0.1,0.2c0.1,0.2,0.1,0.4,0.2,0.7c0.1,0.3,0.2,0.6,0.3,0.9
				c0.3,0.8,0.6,1.6,0.9,2.4l0.2,0.5c0,0.1,0.1,0.2,0.1,0.3c0,0.2,0.1,0.4,0.1,0.5c0.1,0.3,0.2,0.7,0.4,1l0.1,0.2
				c0.1,0.3,0.2,0.6,0.4,0.9l0,0.1c0.4,1.2,1.3,2,2.4,2.4c0.3,0.1,0.7,0.2,1.3,0.2l0.2,0c0.6,0,1.1-0.1,1.5-0.2
				c0.5-0.2,0.9-0.4,1.2-0.7c0.9-0.7,1.4-1.8,1.5-2.9c0-0.9-0.3-1.9-0.5-2.5c-0.2-0.6-0.4-1.2-0.7-1.8c-0.1-0.3-0.2-0.5-0.2-0.8
				c-0.1-0.4-0.3-0.9-0.5-1.4c-0.1-0.3-0.2-0.5-0.4-0.9c-0.2-0.4-0.3-0.8-0.5-1.2c-0.1-0.1-0.1-0.3-0.1-0.5
				c-0.1-0.2-0.1-0.5-0.2-0.7c0.8-0.3,1.6-0.6,2.4-0.8l1-0.3c0.1,0,0.2-0.1,0.3-0.1c0.5-0.2,1.1-0.4,1.6-0.6l0.2-0.1
				c0.8-0.3,1.5-0.6,2.3-0.8c0.5-0.1,0.9-0.3,1.3-0.5l0.3-0.1c0.1-0.1,0.3-0.1,0.5-0.1l0.1,0c0.2-0.1,0.5-0.1,0.7-0.2
				c0.3-0.1,0.6-0.2,0.9-0.4c0.1-0.1,0.2-0.1,0.4-0.2c0.3-0.1,0.5-0.2,0.6-0.2c0.6-0.1,1.1-0.3,1.5-0.5c0.1,0,0.2-0.1,0.3-0.1
				l0.3-0.1c0.2-0.1,0.4-0.2,0.7-0.3c0.1,0,0.1-0.1,0.2-0.1c0.5-0.1,0.9-0.3,1.2-0.4c0.2-0.1,0.3-0.1,0.5-0.2c0.1,0,0.2-0.1,0.4-0.1
				c0.7-0.2,1.9-0.6,2.7-1.8c0.3-0.5,0.7-1.2,0.8-2.2c0.1-1-0.3-1.9-0.9-2.7c-0.5-0.6-1.1-1-1.5-1.2c-0.6-0.3-1.2-0.4-1.9-0.4
				c-1.2,0-2.2,0.4-3,0.7c0,0-0.6,0.2-0.8,0.3c-0.4,0.2-0.9,0.3-1.3,0.5c-0.2,0.1-0.5,0.2-0.9,0.3c-0.2,0.1-0.5,0.1-0.7,0.2
				c-0.8,0.2-1.5,0.5-2.2,0.8c-0.6,0.2-1.2,0.4-1.8,0.6c-0.8,0.2-1.5,0.5-2.3,0.8l-0.1,0c-0.3,0.1-0.6,0.2-0.9,0.3
				c-0.6,0.2-1.2,0.4-1.8,0.6c-0.3,0.1-0.7,0.3-1,0.4l-0.6,0.2c-0.5,0.1-1,0.3-1.4,0.5c0,0-0.5,0.2-0.7,0.2c0-0.1,0-0.1-0.1-0.2
				c-0.4-1.2-0.9-2.4-1.3-3.6c0,0,0.1,0,0.1,0c0.2-0.1,0.9-0.4,0.9-0.4c0.1,0,0.2-0.1,0.2-0.1l0.1,0c0.2-0.1,0.5-0.2,0.7-0.3
				c0.3-0.1,0.7-0.3,1-0.3c0.4-0.1,0.8-0.3,1.3-0.4c0.2-0.1,0.4-0.1,0.7-0.2l0.2-0.1c0.2-0.1,0.5-0.1,0.7-0.2c0.1,0,0.3-0.1,0.5-0.1
				c0.1,0,0.2-0.1,0.3-0.1l0.1,0c1.1-0.4,2.2-0.8,3.3-1.2c0.2-0.1,0.5-0.2,0.7-0.3c0.4-0.2,0.7-0.3,1-0.4c0.2-0.1,0.3-0.1,0.6-0.2
				c0.4-0.1,1-0.3,1.5-0.5c1.9-0.7,3.3-1.2,4.6-1.6l0.3-0.1c0.9-0.3,1.9-0.6,2.9-1.5c1-0.9,1.6-2.3,1.4-3.7
				c-0.2-1.5-1.3-2.6-2.3-3.1c-0.7-0.3-1.4-0.5-2.1-0.5c-0.3,0-0.6,0-1,0.1c-0.3,0.1-0.6,0.2-1,0.3c-0.4,0.2-0.8,0.3-1.3,0.5
				l-1.1,0.3l0,0c-0.2,0.1-0.4,0.2-0.7,0.3c-0.4,0.1-0.7,0.3-1.1,0.4c-0.2,0.1-0.5,0.1-0.7,0.2l-0.2,0.1c-0.7,0.2-1.5,0.4-2.3,0.7
				l-0.4,0.1c-0.4,0.1-0.7,0.3-1.1,0.4l-0.8,0.4c-0.1,0.1-0.3,0.1-0.4,0.2c-0.2,0.1-0.4,0.1-0.6,0.1c-0.3,0.1-0.5,0.1-0.8,0.2
				c-0.2,0.1-0.4,0.1-0.6,0.2l-0.1,0l-0.1,0l-0.1,0.1l0,0c-0.1,0-0.2,0.1-0.3,0.1c0,0-0.1,0-0.1,0c-0.1,0-0.2,0.1-0.4,0.1
				c-0.1,0-0.2,0.1-0.3,0.1c-0.3,0-0.5,0.1-0.7,0.3L320.4,516z"/>
		</g>
        <g id="START_1_">
			<path id="T_2_" class="st0" d="M290.1,526.9c-0.6-1.7-2.3-2.8-4-2.8c-0.5,0-1,0.1-1.5,0.3c-4.4,1.7-10.5,2-16.4,2.4
				c-2,0.1-4.1,0.2-6.2,0.4c-2.4,0.2-4.1,2.3-3.9,4.7c0.2,2.2,2.1,3.9,4.3,3.9c0.1,0,0.3,0,0.4,0c1.8-0.2,3.8-0.3,5.9-0.4
				c0,0,1.2-0.1,1.7-0.1c0.5,4.2,0.8,8.2,1.2,12.7c0.2,2.7,0.5,5.5,0.8,8.4c0.2,2.2,2.1,3.9,4.3,3.9c0.1,0,0.3,0,0.4,0
				c1.1-0.1,2.2-0.7,2.9-1.6c0.7-0.9,1.1-2,1-3.2c-0.3-2.8-0.5-5.6-0.8-8.3c-0.4-4.4-0.8-8.5-1.2-12.7c3.4-0.5,6.1-1.1,8.6-2
				C289.8,531.6,290.9,529.1,290.1,526.9z"/>
            <path id="R_4_" class="st0" d="M253.3,554.9c-2-1-3.7-3.1-5.6-5.2c-0.3-0.4-0.6-0.7-0.9-1.1c1.6-0.6,3-1.4,4.2-2.4
				c2.3-2,3.6-4.6,3.8-7.8c0.2-3.1-0.9-5.9-3.1-8c-3.4-3.3-9.2-4.9-17.3-4.9c-2.3,0-4.8,0.1-7.6,0.4c-2.2,0.2-3.9,2.1-3.9,4.3
				c0,0.2-0.1,0.4-0.1,0.6c-0.2,4.2-0.6,9.2-1,14c-0.2,3.2-0.5,6.8-0.7,10c-0.1,1.2,0.3,2.3,1.1,3.1c0.8,0.9,1.8,1.4,3,1.5
				c0.1,0,0.2,0,0.3,0c2.3,0,4.2-1.8,4.3-4.1c0.1-1.7,0.2-3.6,0.4-5.4c0.4,0,0.9,0.1,1.3,0.1c1.5,0.1,2.9,0.1,4.3,0.1
				c2,1.1,3.7,3.1,5.5,5.2c2.3,2.6,4.7,5.4,8.1,7.2c0.5,0.3,1.1,0.5,1.8,0.5c0.1,0,0.2,0,0.3,0c1.6,0,3.1-0.9,3.8-2.3
				C256.2,558.6,255.4,556,253.3,554.9z M231.2,534.2c1,0,2-0.1,3-0.1c8.3,0,10.8,1.9,11.4,2.5c0.4,0.4,0.5,0.7,0.5,1.3
				c-0.1,0.8-0.3,1.3-0.8,1.8c-0.8,0.7-3.1,1.9-9.5,1.9c-1.6,0-3.3-0.1-5.1-0.2C230.9,539,231.1,536.6,231.2,534.2z"/>
            <path id="A_1_" class="st0" d="M213.4,550.4c-0.1-0.7-0.2-1.3-0.3-1.8c0-0.1,0-0.3,0-0.4c0-0.3,0-0.7-0.2-1.2
				c-0.1-0.5-0.2-1-0.3-1.5c-0.2-1.3-0.3-2.6-0.5-3.9c-0.1-0.5-0.1-1-0.1-1.5c-0.1-0.8-0.1-1.6-0.2-2.4c-0.1-0.5-0.1-0.9-0.2-1.4
				l0-0.1c-0.1-0.8-0.2-1.6-0.3-2.4c-0.1-1-0.2-2.1-0.3-3.1c-0.1-1.2-0.2-2.5-0.4-3.8l0-0.1c-0.1-0.8-0.2-1.8-0.9-2.8
				c-0.9-1.3-2.4-1.8-3.1-2l-0.8-0.2c-1.1-0.3-2.3-0.7-3.5-0.9c-0.2,0-0.4-0.1-0.6-0.2c-0.3-0.1-0.6-0.2-0.9-0.2
				c-0.3-0.1-0.6-0.1-1-0.2c-0.3,0-0.5-0.1-0.8-0.1c-0.1,0-0.2-0.1-0.4-0.1c-0.3-0.1-0.7-0.2-1-0.2c-0.2,0-0.4,0-0.6,0
				c-1.2,0-2.3,0.5-3.1,1.3c-0.2,0.1-0.3,0.3-0.5,0.5c-0.6,0.8-1.2,1.6-1.8,2.5c-0.4,0.6-0.8,1.1-1.2,1.7c-1.6,2.1-3.1,4.1-4.5,6.4
				c-0.7,1.1-1.4,2.1-2.1,3.2l-1,1.4c-0.5,0.7-0.9,1.4-1.4,2.1c-0.5,0.8-1,1.6-1.6,2.4c-0.5,0.7-1.1,1.5-1.6,2.4
				c-0.5,0.9-1.1,2.1-0.8,3.4c0.2,0.9,0.9,2.5,3.6,3c0.2,0,0.5,0.1,0.7,0.1c0.1,0,0.2,0,0.3,0c0.9-0.1,1.8-0.5,2.5-1.2
				c0.5-0.5,0.8-1,1.1-1.4c0.1-0.2,0.3-0.3,0.4-0.5c0.2-0.3,0.4-0.6,0.6-0.9c0.1-0.1,0.1-0.3,0.2-0.4c0,0,3.7-5.2,3.8-5.2
				c0.5,0.1,1,0.2,1.5,0.4c0.9,0.3,1.8,0.5,2.8,0.7c0.3,0.1,0.6,0.1,0.9,0.2c0.5,0.1,0.9,0.2,1.4,0.4c0.7,0.2,1.5,0.5,2.4,0.6
				c1,0.2,2,0.5,3.1,0.8c0.3,0.1,0.7,0.2,1,0.3c0,0,0,0.1,0,0.1c0.1,0.3,0.1,0.6,0.2,1c0.1,0.4,0.1,0.9,0.2,1.3
				c0.1,0.5,0.2,1,0.2,1.5c0,0.5,0.1,0.9,0.2,1.4c0.1,0.3,0.1,0.5,0.1,0.8c0,0.4,0.1,0.8,0.1,1.2c0,0.4,0.1,0.7,0.1,1.1
				c0.1,0.8,0.2,1.4,0.6,2.2c1,2.3,2.8,2.6,3.7,2.6c0.3,0,0.5,0,0.8-0.1c0.9-0.2,3.1-1,3.4-4.4C213.5,551.6,213.5,551.1,213.4,550.4
				z M200.8,533.9l-0.6-0.2c-0.6-0.2-1.2-0.4-1.8-0.5c-0.8-0.2-1.6-0.3-2.3-0.5c-0.1,0-0.1,0-0.2,0c0.2-0.3,0.4-0.5,0.6-0.8
				c0.7-0.9,1.3-2,2.1-3.2c0,0,0,0,0,0c0.1,0,0.1,0,0.1,0l3.3,0.9c0,0.1,0,0.2,0,0.3c0.1,0.6,0.2,1.1,0.3,1.7c0,0.1,0,0.4,0,0.8
				c0,0.5,0,0.9,0.1,1.3c0,0.1,0,0.2,0,0.2l0,0.5c-0.2,0-0.3-0.1-0.4-0.1c-0.2-0.1-0.5-0.1-0.7-0.2C201.2,534,201,533.9,200.8,533.9
				z"/>
            <path id="T_3_" class="st0" d="M182.5,514.6c-4.7-0.6-10.3-3.2-15.6-5.6l-0.1-0.1c-1.9-0.9-3.7-1.7-5.5-2.5
				c-0.5-0.2-1.1-0.3-1.6-0.3c-1.7,0-3.3,1-4,2.7c-0.9,2.2,0.1,4.7,2.3,5.7c1.7,0.7,3.4,1.5,5.3,2.4c0,0,1.2,0.5,1.7,0.8
				c-1.5,3.9-3,7.5-4.8,11.8l-0.1,0.3c-1,2.4-2.1,4.9-3.1,7.4c-0.4,1.1-0.4,2.2,0,3.3c0.4,1.1,1.3,1.9,2.3,2.3
				c0.5,0.2,1.1,0.3,1.6,0.3h0c1.8,0,3.3-1.1,4-2.7c1.1-2.6,2.2-5.2,3.2-7.7c1.7-4.1,3.3-7.8,4.9-11.8c3.2,1.2,5.9,1.9,8.5,2.2
				c0.2,0,0.4,0,0.6,0c2.2,0,4-1.6,4.3-3.8C186.5,517.1,184.8,514.9,182.5,514.6z"/>
            <path id="S_4_" class="st0" d="M154,504.8c-1.4-2.2-2.6-3.8-5-5.9c-3-2.6-7.1-4.1-10.9-4.1c-2.4,0-4.6,0.6-6.3,1.8
				c-3.2,2.2-4.4,6-3.1,10c1.1,3.8,4.2,6.8,7.1,9.6c4.2,4,4.7,5.1,4.3,5.8c-0.1,0.1-0.2,0.3-1,0.3c-0.5,0-1.1-0.1-1.8-0.3
				c-4.9-1.5-9.4-6.4-9.4-9.1c0-1.2-0.4-2.2-1.2-3.1c-0.8-0.8-1.9-1.3-3.1-1.3c-2.4,0-4.3,1.9-4.3,4.3c-0.1,6.3,5.7,12.5,11.2,15.6
				c1.5,0.8,2.9,1.5,4.4,1.9c1.5,0.4,2.9,0.7,4.3,0.7c3.5,0,6.4-1.5,8.2-4.3c4.5-7.1-1.6-12.9-5.6-16.7c-2-1.9-4.3-4.1-4.8-5.7
				c0-0.1,0-0.2-0.1-0.2c0-0.1-0.1-0.2-0.1-0.3c0.3-0.1,0.7-0.2,1.3-0.2c0.8,0,3,0.2,5.2,2.1c1.5,1.3,2.2,2.2,3.4,4
				c0.8,1.2,2.2,2,3.6,2c0.8,0,1.7-0.2,2.4-0.7C154.7,509.5,155.3,506.8,154,504.8z"/>
		</g>
        <g id="FRESH_1_">
			<path id="H_2_" class="st0" d="M112.8,474.9c-0.8-0.7-1.8-1.1-2.9-1.1c-1.2,0-2.4,0.5-3.2,1.4c-1.2,1.3-3.2,3.6-5.5,6.1
				c-2.7-2.4-5.6-5-8.5-7.5l-1.1-0.9c-0.6-0.6-1.3-1.1-1.9-1.6c-0.5-0.5-1.1-0.9-1.6-1.4l4.9-5.5c1.5-1.7,1.4-4.1-0.2-5.7l-0.4-0.4
				l-0.6,0.2h0c-0.1-0.1-0.2-0.2-0.3-0.2c-0.4-0.3-1-0.8-1.7-0.8h-0.2c-0.8,0-2.1,0-3,1l-4.7,5.3c-3.9,4.5-8.2,9.3-11.6,13.2
				c-0.8,0.9-1.1,2-1.1,3.1c0.1,1.2,0.6,2.2,1.5,3c0.8,0.7,1.8,1.1,2.9,1.1c1.2,0,2.4-0.5,3.3-1.5l5.6-6.4c1.2,1,2.4,2.1,3.6,3.1
				c3.1,2.6,6.5,5.6,9.5,8.3c-2.6,3-4.5,5.2-5.6,6.6c-1.5,1.8-1.2,4.4,0.5,6l0.1,0.1c0.8,0.6,1.7,1,2.7,1c1.3,0,2.5-0.6,3.4-1.6
				c3.3-4.2,13.3-15.2,16.5-18.8c0.8-0.9,1.2-2,1.1-3.1C114.2,476.8,113.7,475.7,112.8,474.9z"/>
            <path id="S_3_" class="st0" d="M82.7,451c-0.5-2.6-1-4.5-2.5-7.3c-2.8-5.1-8.1-8.7-13-8.7c-0.7,0-1.5,0.1-2.2,0.2
				c-3.8,0.9-6.3,4-6.5,8.2c-0.4,4,1.4,7.8,3.2,11.5c2.5,5.2,2.6,6.5,1.9,6.9c-0.1,0.1-0.2,0.1-0.3,0.1c-0.2,0-1-0.1-2.2-1.1
				c-4-3.1-6.5-9.4-5.4-11.9c0.9-2.2-0.2-4.7-2.4-5.6c-0.5-0.2-1.1-0.3-1.6-0.3c-1.8,0-3.3,1.1-4,2.7c-2.4,5.9,0.8,13.8,4.7,18.6
				c1.1,1.3,2.2,2.4,3.4,3.4c2.4,1.9,5.1,2.9,7.6,2.9c2,0,3.8-0.6,5.4-1.8c6.8-4.9,3.2-12.6,0.8-17.6c-1.2-2.5-2.5-5.4-2.4-7.1
				l0-0.2c0-0.1,0-0.3,0-0.3c1.1,0,3.8,1,5.4,4.1c1,1.8,1.2,2.8,1.7,5c0.4,2,2.2,3.4,4.2,3.4c0.3,0,0.6,0,0.9-0.1
				c1.1-0.2,2.1-0.9,2.7-1.9C82.7,453.3,82.9,452.1,82.7,451z"/>
            <path id="E_2_" class="st0" d="M62.3,420.9c-2.6-4.8-4.5-8.4-6-11l-0.2-0.3c-4.1-7.7-4.4-8.2-6.5-8.8c-0.4-0.1-0.8-0.2-1.2-0.2
				c-0.8,0-1.6,0.2-2.3,0.7c-3.5,2.1-7.7,4.4-11.5,6.4l-0.1,0.1c-4.1,2.2-7.6,4-9.8,5.6c-3.4,2.3-1.4,5.8-0.6,7.1
				c0.5,0.9,1.2,2.1,2.1,3.6c2.7,4.7,7.3,12.6,8.5,15.8c0.1,0.2,0.2,0.4,0.3,0.5c0.8,1.4,2.2,2.2,3.8,2.2c0.5,0,1.1-0.1,1.6-0.3
				c2.2-0.9,3.4-3.4,2.5-5.6c-1.5-3.8-6.1-11.8-9.2-17.1l-0.7-1.1c1-0.6,2.2-1.2,3.2-1.8c1.8,3,3.2,5.7,4.7,8.5
				c1.3,2.4,2.6,5,4.4,8.1c0.8,1.3,2.2,2.2,3.8,2.2c0.8,0,1.5-0.2,2.2-0.6c2-1.2,2.8-3.8,1.6-5.9c-1.7-3-3.1-5.5-4.3-7.9
				c-1.5-2.8-2.9-5.4-4.7-8.4c1.1-0.6,2.1-1.2,3.1-1.7c0.4,0.8,1,1.8,1.5,2.8c1.4,2.7,3.4,6.4,6.2,11.4c0.8,1.4,2.2,2.2,3.8,2.2
				c0.7,0,1.4-0.2,2.1-0.5C62.7,425.6,63.5,423,62.3,420.9z"/>
            <path id="R_3_" class="st0" d="M39.2,368.1c-0.7-1.4-2.2-2.3-3.8-2.3c-0.5,0-1.1,0.1-1.6,0.3c-0.2,0-0.4,0.1-0.6,0.2
				c-4,1.4-8.7,2.9-13.3,4.4c-3.2,1-6.5,2.1-9.6,3.1c-2.3,0.8-3.5,3.2-2.7,5.5c0.6,1.8,2.2,2.9,4.1,2.9c0.5,0,0.9-0.1,1.4-0.2
				c1.6-0.6,3.4-1.1,5.2-1.7c0.1,0.4,0.3,0.8,0.4,1.2c0.5,1.4,1,2.8,1.5,4c-0.3,2.2-1.5,4.6-2.8,7.1c-1.6,3.1-3.2,6.4-3.6,10.2
				c-0.1,0.6,0,1.2,0.2,1.8c0.5,1.6,2,2.8,3.7,2.9c0.1,0,0.3,0,0.4,0c2.2,0,4.1-1.7,4.3-3.9c0.2-2.2,1.4-4.6,2.7-7.1
				c0.2-0.4,0.4-0.8,0.6-1.3c1.2,1.3,2.4,2.3,3.8,3c1.6,0.8,3.2,1.2,4.9,1.2c1.2,0,2.5-0.2,3.7-0.6c2.9-1,5.1-3,6.3-5.9
				C46.6,387.3,44.8,379,39.2,368.1z M34.4,390.8c-0.3,0-0.6-0.1-0.9-0.2c-1.3-0.7-3.9-3.3-7-12.9c2-0.6,4.4-1.4,6.7-2.2
				c4.6,9.8,3.5,13.6,3.2,14.2c-0.2,0.5-0.5,0.8-1,0.9C35,390.7,34.7,390.8,34.4,390.8z"/>
            <path id="F_2_" class="st0" d="M36.6,358.1l0-0.1c-0.1-0.4-0.1-0.9-0.2-1.3c0,0,0-0.1,0-0.2l0-0.3c0-0.4-0.1-0.9-0.2-1.4
				c-0.1-0.4-0.1-0.8-0.2-1.2c0-0.3,0-0.6-0.1-0.8l0-0.2c0-0.8-0.1-1.6-0.2-2.4l-0.1-0.4c-0.1-0.4-0.1-0.8-0.2-1.2
				c0-0.2-0.1-0.4-0.1-0.6l0-0.2c0-0.2-0.1-0.3-0.1-0.5c0-0.2,0-0.4,0-0.6c0-0.3,0-0.5,0-0.8c0-0.2-0.1-0.4-0.1-0.6l0-0.2l-0.1-0.2
				c0-0.1,0-0.2-0.1-0.3c0,0,0-0.1,0-0.1c0-0.2-0.1-0.4-0.1-0.6c0-0.1,0-0.1-0.1-0.2c0-0.3-0.2-0.5-0.3-0.7c0,0,0,0,0,0c0,0,0,0,0,0
				c0-0.1,0-0.2-0.1-0.2l0.3-0.4l-0.1-0.5c-0.1-0.5-0.1-1-0.2-1.5c-0.1-0.5-0.1-0.9-0.2-1.5c-0.1-0.6-0.1-1.3-0.2-2
				c-0.1-0.5-0.1-1.1-0.2-1.7c0-0.5-0.1-0.9-0.1-1.4c-0.1-0.8-0.2-1.9-1.1-3c-0.8-1-1.9-1.5-3.2-1.5c-0.5,0-0.9,0.1-1.3,0.1
				c-0.4,0.1-0.9,0.1-1.4,0.2l-0.6,0.1c-0.4,0-0.7,0.1-1.1,0.2c-0.2,0-0.4,0.1-0.6,0.1c-0.4,0-0.8,0.1-1.2,0.2
				c-0.7,0.1-1.3,0.2-2,0.3l-1.3,0.2c-0.9,0.1-1.8,0.2-2.7,0.3c-0.2,0-0.4,0.1-0.6,0.1c-0.1,0-0.3,0.1-0.4,0.1
				c-0.3,0-0.8,0.1-1.2,0.1c-0.5,0-0.9,0.1-1.3,0.2c-0.2,0-0.3,0.1-0.5,0.1c-0.5,0.1-1,0.2-1.5,0.2l-0.2,0c-0.2,0-0.4,0-0.7,0.1
				c-0.3,0-0.6,0-0.9,0.1c-0.8,0.1-1.7,0.2-2.5,0.4l-0.6,0.1c-0.1,0-0.2,0-0.4,0c-0.2,0-0.4,0-0.5,0c-0.3,0-0.7,0.1-1,0.2l-0.2,0
				c-0.3,0.1-0.7,0.1-1,0.1l-0.1,0c-1.2,0.2-2.2,0.8-2.8,1.9c-0.1,0.3-0.4,0.6-0.5,1.2c-0.1,0.4-0.2,1-0.1,1.7
				c0.1,0.5,0.2,0.9,0.4,1.4c0.5,1,1.5,1.8,2.5,2c0.4,0.1,0.8,0.1,1.2,0.1c0.4,0,0.8,0,1.3-0.1c0.6-0.1,1.2-0.2,1.9-0.3
				c0.3,0,0.6,0,0.9-0.1c0.4,0,0.9-0.1,1.5-0.1c0.3,0,0.6-0.1,0.9-0.2l0.1,0c0.4-0.1,0.8-0.1,1.1-0.2c0.2,0,0.3,0,0.5,0
				c0.2,0,0.5,0,0.8-0.1c0.1,0.8,0.2,1.7,0.3,2.6c0,0.4,0.1,0.8,0.1,1.2c0.1,0.6,0.1,1.1,0.2,1.7l0,0.1c0.1,0.9,0.2,1.6,0.3,2.4
				c0,0.5,0.1,0.9,0.2,1.4l0.1,0.3c0,0.1,0,0.3,0,0.6c0,0.3,0,0.5,0.1,0.8c0,0.3,0.1,0.6,0.2,0.9c0,0.1,0.1,0.3,0.1,0.4
				c0,0.3,0.1,0.5,0.1,0.7c0,0.6,0,1.1,0.1,1.6c0,0.1,0,0.2,0,0.4l0,0.3c0,0.2,0.1,0.5,0.1,0.7c0,0.1,0,0.2,0,0.2
				c0,0.5,0.1,0.9,0.2,1.3c0,0.2,0.1,0.4,0.1,0.5c0,0.1,0,0.2,0,0.4c0.1,0.8,0.2,2,1.2,3c0.4,0.4,1,1,2,1.2c0.3,0.1,0.7,0.1,1,0.1
				c0.6,0,1.2-0.2,1.9-0.5c0.7-0.4,1.2-0.9,1.5-1.3c1.2-1.6,0.9-3.5,0.7-4.8c0,0-0.1-0.7-0.1-0.9c-0.1-0.5-0.1-0.9-0.2-1.4
				c0-0.2-0.1-0.5-0.1-0.8c0-0.3,0-0.5,0-0.8c-0.1-0.8-0.2-1.6-0.3-2.3c-0.1-0.6-0.2-1.3-0.2-1.9c0-0.8-0.2-1.6-0.3-2.4l0-0.1
				c0-0.3-0.1-0.6-0.1-0.9c-0.1-0.6-0.1-1.3-0.2-1.9c-0.1-0.3-0.1-0.7-0.1-1l0-0.6c0-0.5-0.1-1-0.1-1.6c0,0-0.1-0.5-0.1-0.7
				c0.1,0,0.1,0,0.2,0c1.3-0.2,2.6-0.4,3.8-0.5c0,0,0.2,1.4,0.2,1.4l0,0.1c0,0.3,0.1,0.5,0.1,0.8c0.1,0.3,0.1,0.7,0.1,1
				c0,0.5,0.1,0.9,0.1,1.4c0,0.2,0.1,0.5,0.1,0.7l0,0.3c0,0.2,0,0.5,0.1,0.8c0,0.1,0,0.3,0,0.5c0,0.1,0,0.2,0.1,0.3l0,0.1
				c0.1,1.2,0.3,2.3,0.5,3.5c0,0.2,0.1,0.5,0.1,0.7c0.1,0.4,0.1,0.7,0.2,1.1c0,0.2,0,0.3,0,0.6c0,0.5,0,1.1,0.1,1.6
				c0.3,2,0.5,3.5,0.6,4.8l0,0.3c0.1,0.9,0.2,2,0.8,3.1c0.6,1.2,1.9,2,3.3,2.2c0.1,0,0.2,0,0.3,0c1.4,0,2.6-0.8,3.2-1.6
				c0.7-0.8,1-1.8,1.1-2.9C36.7,358.8,36.6,358.4,36.6,358.1z"/>
		</g>
	</g>
        <g id="Hen_1_">
		<path id="XMLID_100_" class="st0" d="M54.6,255.7c-1.2,0-2.3-0.7-2.7-1.9l-26.5-71.5c-0.3-0.9-0.2-1.8,0.3-2.6
			c0.5-0.8,1.3-1.2,2.2-1.3l68.4-4.8c0,0,0.1,0,0.1,0c1.2,0,2.2,0.6,2.6,1.7c0.5,1,0.3,2.2-0.5,3.1c-19.2,22-33.1,47.3-41.2,75.2
			C57,254.9,55.9,255.7,54.6,255.7z"/>
            <path id="XMLID_115_" class="st0" d="M54.6,254.7c-0.8,0-1.5-0.5-1.8-1.2L26.3,182c-0.2-0.6-0.1-1.2,0.2-1.7
			c0.3-0.5,0.9-0.8,1.5-0.9l68.4-4.8l0.1,0c0.7,0,1.4,0.4,1.7,1.1c0.3,0.7,0.2,1.5-0.3,2c-19.3,22.1-33.3,47.6-41.5,75.6
			C56.2,254.2,55.4,254.7,54.6,254.7C54.6,254.7,54.6,254.7,54.6,254.7z"/>
            <path id="XMLID_102_" class="st0" d="M295.7,169.3c-3,0-6-0.2-8.8-0.7c-6.7-1.1-11.4-3.1-14.6-6.1c-1.8-1.7-3.4-3.5-5.1-5.3
			c-1.9-2-3.8-4.2-5.9-6c-3.9-3.6-8.1-6.8-12.3-9.6c-16.1-10.5-34.8-16.1-54.1-16.1c-17.7,0-35.1,4.7-50.3,13.7
			c-0.5,0.3-1,0.4-1.5,0.4c-0.5,0-1.1-0.1-1.5-0.4c-0.9-0.6-1.5-1.6-1.4-2.7c1.1-24.4,33.4-86.5,54.8-105.4c4.5-4,8.5-6,11.8-6
			c0.2,0,0.4,0,0.5,0l0.1,0c0.7,0,1.4,0.1,1.9,0.3c2.8,0.7,4.9,2.9,5.8,5.7c0.5,1.6,0.5,3.1,0.6,4.3c0,0.9,0,1.8-0.1,2.7
			c9.9-11.4,36.1-37.7,68.3-38.1l0.4,0c7.5,0,14.8,3,20,8.4c5.2,5.4,8,12.5,7.7,20c-0.2,4.4-1.4,8.8-3.7,12.6
			c-3.7,6.6-9.5,12.5-13.7,16.3c2.8-0.3,5.5-0.5,8.1-0.5c0.7,0,1.3,0,2,0c12.6,0.4,22.9,3,31.6,8c7.9,4.5,14.4,11.1,19.1,18.9
			c4.7,8,7.2,17.2,7.2,26.6c0,13.5-5.1,26.3-14.4,36.1c-4.5,4.4-9.4,8.3-14.5,11.5C321.6,165.2,308.2,169.3,295.7,169.3z M195,121.5
			c20.1,0,39.6,5.8,56.3,16.7c4.4,2.9,8.7,6.2,12.8,10c2.2,2,4.2,4.2,6.1,6.3c1.6,1.7,3.2,3.5,4.9,5.1c2.5,2.4,6.6,4.1,12.4,5
			c2.6,0.4,5.4,0.7,8.2,0.7c11.8,0,24.4-3.9,35.6-10.9c4.9-3,9.5-6.7,13.8-10.9c8.5-9,13.3-20.9,13.3-33.3c0-8.6-2.3-17.1-6.7-24.5
			c-4.3-7.2-10.3-13.3-17.6-17.5c-8-4.6-17.8-7.1-29.7-7.5c-0.6,0-1.2,0-1.9,0c-4.6,0-9.4,0.6-14.4,1.7l-1.5,0.3l-0.8-1.4
			c-0.4-1-0.1-2,0.7-2.6c2-1.5,12.6-9.8,18.2-19.7c1.9-3.3,3-7,3.1-10.8c0.2-6.4-2.1-12.4-6.5-17C296.8,6.5,290.8,4,284.3,4l-0.3,0
			c-36.6,0.5-65.7,36.8-68.9,41l-1.4,1.7l-0.9,0.1l-0.1,0c-0.5,0-1.1-0.2-1.5-0.6l-0.8-0.8l0.2-1.1c0.7-3,1-6,1-8.8
			c0-0.9-0.1-2.1-0.4-3.2c-0.5-1.5-1.6-2.6-3-3c-0.3-0.1-0.7-0.1-1-0.1c-0.2,0-0.3,0-0.4,0c-2.3,0-5.5,1.7-9.1,5
			c-20.4,18.1-50.8,75.9-53.3,100.8C159.7,126.1,177.1,121.5,195,121.5z"/>
            <path id="XMLID_112_" class="st0" d="M295.7,168.3c-2.9,0-5.8-0.2-8.6-0.7c-6.5-1.1-11.1-3-14-5.8c-1.8-1.7-3.4-3.5-5-5.3
			c-1.9-2.1-3.8-4.2-5.9-6.1c-4-3.6-8.2-6.9-12.4-9.7c-16.3-10.6-35.2-16.3-54.7-16.3c-17.9,0-35.5,4.8-50.8,13.9
			c-0.6,0.4-1.4,0.4-2,0c-0.6-0.4-1-1-0.9-1.8c1.1-24.2,33.1-85.9,54.5-104.7c4.6-4,8.5-6,11.6-5.7c0.5,0,1.1,0.1,1.7,0.2
			c2.4,0.7,4.3,2.5,5.1,5c0.4,1.4,0.5,2.9,0.5,4.1c0,1.9-0.1,3.8-0.4,5.8c7.2-8.7,35-39.8,69.7-40.2c0.1,0,0.2,0,0.4,0
			c7.2,0,14.2,2.9,19.2,8.1c5,5.2,7.7,12,7.4,19.2c-0.2,4.3-1.4,8.5-3.5,12.1c-4.5,7.9-11.8,14.7-16.1,18.3c4.6-0.8,9-1.1,13.2-1
			c12.4,0.4,22.6,3,31.1,7.9c7.7,4.5,14.2,10.9,18.7,18.6c4.6,7.9,7.1,16.9,7.1,26.1c0,13.2-5,25.8-14.1,35.4
			c-4.5,4.4-9.3,8.1-14.3,11.3C321.1,164.4,308,168.3,295.7,168.3z M195,122.5c19.9,0,39.2,5.7,55.8,16.6c4.4,2.8,8.6,6.2,12.7,9.9
			c2.2,2,4.1,4.1,6,6.2c1.6,1.7,3.2,3.5,4.9,5.2c2.7,2.6,6.9,4.3,13,5.3c14,2.3,30.3-1.5,44.5-10.4c4.9-3.1,9.6-6.8,13.9-11
			c8.7-9.2,13.6-21.3,13.6-34c0-8.8-2.3-17.5-6.8-25c-4.3-7.4-10.6-13.6-18-17.8c-8.2-4.7-18.1-7.2-30.2-7.6
			c-5.2-0.2-10.8,0.4-16.5,1.7l-0.8,0.2l-0.4-0.8c-0.2-0.5-0.1-1,0.4-1.3c2.1-1.6,12.8-9.9,18.5-20l0,0c2-3.4,3.1-7.3,3.3-11.2
			c0.3-6.7-2.2-13-6.8-17.8c-4.8-4.9-11.2-7.5-18.1-7.4c-37.1,0.5-66.4,37.2-69.6,41.4l-1.1,1.3l-0.5,0c-0.3,0-0.6-0.1-0.8-0.3
			l-0.4-0.4l0.1-0.5c0.7-3.1,1.1-6.1,1.1-9c0-1-0.1-2.3-0.4-3.5c-0.6-1.8-1.9-3.2-3.7-3.7c-0.4-0.1-0.9-0.2-1.3-0.2
			c-2.6-0.2-6.1,1.6-10.2,5.2C176,52,144.3,112.9,143.2,136.7C158.8,127.4,176.7,122.5,195,122.5z"/>
            <path id="XMLID_99_" class="st0" d="M170.8,211.5c-8.6,0-15.6-7-15.6-15.6s7-15.6,15.6-15.6s15.6,7,15.6,15.6
			S179.4,211.5,170.8,211.5z"/>
            <path id="XMLID_111_" class="st0" d="M170.8,210.5c-8,0-14.6-6.5-14.6-14.6c0-8,6.5-14.6,14.6-14.6c8,0,14.6,6.5,14.6,14.6
			C185.4,203.9,178.8,210.5,170.8,210.5z"/>
            <path id="XMLID_98_" class="st0" d="M249.4,518.5l-4.3-0.4c-0.5,0-1.2-0.1-1.8-0.1c-0.5-0.1-0.9-0.1-1.4-0.1l-3.2-0.2l-4.2-0.4
			c-0.7-0.1-1.5-0.1-2.2-0.2l-1.5-0.2c-1.7-0.2-3.3-0.4-4.9-0.6c-8.6-1.1-17.1-2.8-25.4-5.1l-3.1-0.9l-4.6-1.4l-4.6-1.5
			c-4.9-1.7-8.6-3.1-12.1-4.6c-0.4-0.1-0.7-0.3-1.1-0.4c-0.7-0.3-1.3-0.5-1.9-0.8l-2.9-1.3c-0.9-0.4-1.8-0.8-2.7-1.2l-3-1.4
			l-4.3-2.1l-1.4-0.7l-2.8-1.4c-0.7-0.3-1.3-0.7-1.9-1l-0.9-0.5c-1.4-0.7-2.8-1.5-4.1-2.3l-1.4-0.8c-0.6-0.3-1.2-0.7-1.8-1
			c-0.3-0.2-1.6-0.9-1.9-1.1c-0.6-0.3-1.2-0.7-1.7-1l-3.1-1.9c-0.3-0.2-0.6-0.4-0.9-0.6l-2.2-1.4c-0.5-0.4-1.1-0.7-1.7-1.1l-2.6-1.8
			c-6.5-4.4-13-9.4-19.5-14.8c-1.2-1-2.5-2.1-3.7-3.1l-0.9-0.8c-0.6-0.5-1.2-1.1-1.9-1.7l-2.6-2.3l-2.7-2.5c-0.6-0.5-1.1-1-1.6-1.6
			l-1.2-1.2c-1-0.9-2-1.9-2.9-2.9l-2-2.1l-2.6-2.8c-0.5-0.5-0.9-1-1.4-1.5l-2.8-3.2l-0.9-1.1l-1.8-2.2c-0.5-0.5-0.9-1.1-1.4-1.7
			l-2.1-2.7c-4.4-5.7-8.5-11.8-12.2-18.1l-0.6-1.1c-0.7-1.2-1.3-2.3-2-3.5l-0.5-0.9c-0.6-1.2-1.3-2.4-1.9-3.6l-0.5-1
			c-0.6-1.1-1.2-2.3-1.7-3.5l-0.5-1.2c-0.5-1.1-1.1-2.2-1.5-3.3c-1.2-2.6-2.4-5.5-3.7-8.8l-0.5-1.4c-0.4-1-0.8-2-1.1-2.9l-1.5-4.3
			l-1.3-4.2c-0.4-1.1-0.7-2.2-1-3.2l-0.4-1.5c-0.1-0.5-0.3-1-0.4-1.4l-0.8-3c-0.3-1-0.5-2-0.7-2.9c-0.3-1.3-0.6-2.5-0.9-3.8
			c-0.3-1.3-0.5-2.5-0.7-3.7c-0.2-1-0.4-2-0.6-3l-0.1-0.8c-0.2-1.1-0.4-2.2-0.5-3.2c-0.1-0.6-0.2-1.2-0.3-1.8
			c-0.2-1.7-0.4-3.2-0.6-4.7c-0.1-1-0.2-2-0.3-3l-0.2-2.9c-0.5-5.9-0.7-11.7-0.6-17.6c0-0.7,0-1.4,0-2l0.1-3c0-0.2,0-0.6,0.2-1
			c0.3-0.7,0.9-1.1,1.1-1.2c0.2-0.1,0.3-0.1,0.3-0.2l0.5-0.2l0.4-0.1c0.2-0.1,0.4-0.1,0.5-0.1c0.3-0.1,0.4-0.1,0.6-0.1
			c0.2,0,0.2-0.3,0.4-0.3l0.1-0.2h0.1c0.4,0,0.7,0.4,0.9,0.8c0.1-0.1,0.2-0.1,0.3-0.1l0.4-0.2l0.1,0l0.3,0c0.1,0,0.2,0,0.2,0
			l0.7,0.1c0.2,0,0.3,0,0.4,0.1l0.3,0.1l0.6,0.2c0.2,0.1,0.3,0.1,0.4,0.2c0.5,0.3,0.9,0.7,1.2,1.2c0.2,0.4,0.2,0.8,0.2,0.9
			c0,0,0.2,2.8,0.2,3c0,0.5,0.1,1.1,0.1,1.7l0.1,1.3c0.1,1.7,0.3,3.6,0.5,5.8l0.2,2.2l0.6,4.7c0.1,0.6,0.2,1.3,0.3,2l0.5,3.3
			l0.5,2.8c0.2,1.4,0.5,2.8,0.8,4.2l0.4,2c0.9,4.3,1.8,8.7,3.1,13.4c0.2,0.9,0.5,1.8,0.7,2.7l0.8,2.9c0.1,0.4,0.2,0.8,0.4,1.2
			l0.8,2.7c0.2,0.6,0.4,1.2,0.5,1.8l1.3,4l1.4,4c0.3,0.9,0.6,1.7,0.9,2.6l0.6,1.5c1.2,3,2.3,5.7,3.4,8.3c0.4,1,0.9,2,1.3,2.9
			l0.6,1.3c0.5,1.1,1,2.2,1.5,3.2l0.5,1c1.5,3.1,3,5.9,4.5,8.6c3.3,6,6.8,11.9,10.5,17.6l1.9,2.8c0.4,0.5,0.7,1.1,1.1,1.6l2.4,3.3
			l2.4,3.3c0.4,0.5,0.8,1,1.1,1.5l2.2,2.8l1.8,2.2c0.8,1,1.7,2,2.5,3l1.1,1.3c0.4,0.5,0.9,1,1.3,1.5l2.5,2.8l2.5,2.6
			c0.5,0.5,1,1,1.4,1.5l0.9,0.9c1,1,2.1,2.1,3.2,3.2c11.3,10.8,24.3,20,38.8,27.5l1,0.5c0.6,0.3,1.1,0.6,1.7,0.9l2.9,1.4
			c0.4,0.2,0.8,0.4,1.3,0.6l4.2,1.9l3.2,1.3c0.8,0.3,1.6,0.7,2.4,1l2.9,1.1c0.6,0.2,1.2,0.4,1.8,0.6c0.4,0.1,0.7,0.3,1.1,0.4
			c1.9,0.7,3.8,1.3,5.7,1.9c0.9,0.3,1.7,0.5,2.5,0.7l1.7,0.5c0.6,0.2,1.3,0.4,1.9,0.5l4.5,1.2l4.5,1.1l3,0.6
			c1.3,0.3,2.7,0.5,3.9,0.8c0.7,0.1,1.5,0.3,2.2,0.4c0.5,0.1,1,0.2,1.5,0.3l2.8,0.5c0.6,0.1,1.1,0.2,1.7,0.3l3.1,0.4l1.5,0.2
			l4.6,0.5l3,0.3c4.2,0.4,8.3,0.6,12.2,0.8l3.5,0.1c0.7,0,1.3,0,2,0l4.4,0l5.9-0.2c0.8,0,1.5,0,2.3-0.1l6.1-0.4l5.9-0.6
			c0.7-0.1,1.4-0.2,2.1-0.3l3.8-0.5c7.5-1.1,15.1-2.7,22.7-4.7l5.5-1.6c1-0.3,2.1-0.7,3.2-1l3.6-1.1l4.7-1.7
			c0.6-0.2,1.2-0.4,1.8-0.7l2.6-1c3-1.2,6-2.5,8.9-3.8l1.1-0.5l4.8-2.3c0.6-0.3,1.1-0.5,1.6-0.8l3.1-1.6c0.2-0.1,0.5-0.3,0.8-0.4
			l0.1-0.1c0.5-0.3,0.9-0.5,1.4-0.7c0.6-0.4,1.3-0.7,1.9-1.1l1.7-1c1-0.6,2.1-1.2,3.1-1.8l4.4-2.7c0,0,3.4-2.2,4.1-2.7
			c1-0.6,2-1.3,2.9-2l2.2-1.6c0.9-0.7,1.8-1.3,2.7-1.9l3.8-2.9c0.7-0.6,1.5-1.2,2.2-1.8l3.2-2.6l5-4.4c0,0,4.2-3.9,4.7-4.4
			c0.5-0.5,3.7-3.7,4.4-4.4c0.6-0.6,1.2-1.2,1.7-1.8l3-3.2c0.2-0.2,4.3-4.9,4.3-4.9c0.4-0.4,0.7-0.9,1.1-1.3l2.3-2.7
			c0.6-0.7,1.2-1.4,1.7-2.1l2.4-3.1c2.7-3.6,4.9-6.7,6.8-9.5l1.5-2.2c0,0,1.9-3.1,2.2-3.6c0.5-0.8,1-1.5,1.4-2.2l3.1-5.3l4.1-7.7
			l13.2,7.2l-3.7,7.1c-0.1,0.2-0.2,0.4-0.3,0.6l-0.5,0.8c-0.3,0.5-3,5.1-3,5.1c-0.5,0.8-1,1.6-1.5,2.4l-2.4,3.9l-1.6,2.3
			c-4.8,7.4-10.5,14.7-16.8,21.8l-0.4,0.5c-0.7,0.8-1.5,1.7-2.3,2.5c-0.2,0.2-0.7,0.8-0.7,0.8c0,0-2.9,3-3.2,3.4
			c-0.6,0.7-1.3,1.3-1.9,2c-1,1-2.1,2-3.2,3.1c-0.4,0.4-1.6,1.5-1.6,1.5l-5.1,4.7l-5.5,4.6l-3.1,2.4c-1,0.8-1.8,1.5-2.7,2.2l-4.1,3
			c-1,0.8-2.1,1.5-3,2.1c-0.4,0.3-2.3,1.6-2.3,1.6c-1.1,0.7-2.2,1.5-3.3,2.2l-4.4,2.8l-4.7,2.8c-1.1,0.7-2.4,1.4-3.5,2
			c0,0-0.9,0.5-1.3,0.7c-0.8,0.4-1.6,0.9-2.4,1.3c-0.5,0.3-1.1,0.6-1.6,0.8c0,0-4,2-4.3,2.1c-0.6,0.3-1.2,0.6-1.8,0.9l-5.1,2.4
			l-0.7,0.3c-3.3,1.4-6.6,2.8-10.1,4.1l-2.7,1c-0.6,0.2-1.2,0.4-1.8,0.6l-4,1.3c-0.4,0.1-0.9,0.3-1.3,0.4l-3.3,1
			c-1.3,0.4-2.6,0.8-3.9,1.2l-5.9,1.5c-7.9,1.9-16.1,3.4-24.5,4.4l-3.8,0.4c-0.8,0.1-1.7,0.2-2.5,0.2l-6.2,0.5l-6.4,0.3
			c-0.3,0-0.7,0.1-1,0.2c-0.5,0.1-1,0.2-1.6,0.2l-5.4,0.3H249.4z"/>
            <path id="XMLID_82_" class="st0" d="M249.4,517.5l-4.2-0.4c-1,0-2.1-0.2-3.2-0.3l-3.2-0.2l-4.2-0.4c-0.7-0.1-1.5-0.1-2.2-0.2
			l-1.5-0.2c-1.6-0.2-3.2-0.4-4.9-0.6c-8.5-1.1-17-2.8-25.2-5.1l-3.1-0.9l-4.6-1.4l-4.6-1.5c-4.9-1.7-8.6-3.1-12-4.6
			c-0.4-0.1-0.7-0.3-1.1-0.4c-0.6-0.3-1.3-0.5-1.9-0.8l-2.9-1.3c-0.9-0.4-1.8-0.8-2.7-1.2l-3-1.4l-4.3-2.1l-1.4-0.7l-2.8-1.4
			c-0.6-0.3-1.3-0.7-1.9-1l-0.9-0.5c-1.4-0.7-2.8-1.5-4.1-2.3l-1.4-0.8c-0.6-0.3-1.2-0.7-1.8-1c-0.3-0.2-1.6-0.9-1.9-1.1
			c-0.6-0.3-1.1-0.7-1.7-1l-3.1-1.9c-0.3-0.2-0.6-0.4-0.9-0.6l-2.2-1.4c-0.6-0.4-1.1-0.7-1.7-1.1l-2.6-1.8
			c-6.5-4.4-13-9.4-19.4-14.7c-1.2-1-2.5-2.1-3.7-3.1l-0.9-0.8c-0.6-0.5-1.3-1.1-1.9-1.7c0,0-1.8-1.6-2.5-2.3l-2.7-2.5
			c-0.5-0.5-1.1-1-1.6-1.6l-1.2-1.1c-1-1-2-2-3-3c-0.7-0.7-1.3-1.4-2-2.1l-2.6-2.8c-0.5-0.5-0.9-1-1.4-1.5c-0.6-0.7-2.5-2.8-2.8-3.2
			l-0.9-1.1l-1.8-2.2c-0.5-0.5-0.9-1.1-1.3-1.7l-2.1-2.7c-4.4-5.7-8.4-11.7-12.1-18l-0.6-1.1c-0.7-1.1-1.3-2.3-1.9-3.5l-0.5-1
			c-0.6-1.2-1.3-2.4-1.9-3.6l-0.5-1c-0.6-1.1-1.2-2.3-1.7-3.5l-0.6-1.2c-0.5-1.1-1-2.2-1.5-3.3c-1.2-2.6-2.4-5.5-3.7-8.8l-0.5-1.4
			c-0.4-1-0.8-2-1.1-2.9l-1.5-4.2l-1.3-4.2c-0.3-1.1-0.7-2.2-1-3.2l-0.4-1.5c-0.1-0.5-0.3-0.9-0.4-1.4l-0.8-3
			c-0.3-1-0.5-1.9-0.7-2.9c-0.3-1.3-0.6-2.5-0.9-3.8c-0.3-1.3-0.5-2.5-0.7-3.7c-0.2-1-0.4-2-0.5-3l-0.1-0.8
			c-0.2-1.1-0.4-2.1-0.5-3.2c-0.1-0.7-0.2-1.3-0.3-1.9c-0.2-1.6-0.4-3.1-0.6-4.6c-0.1-1-0.2-2-0.3-3l-0.2-2.9
			c-0.5-5.9-0.7-11.6-0.6-17.5c0-0.7,0-1.4,0-2l0.1-3c0-0.2,0-0.4,0.1-0.6c0.2-0.4,0.5-0.6,0.7-0.8c0.1-0.1,0.2-0.1,0.2-0.1l0.5-0.2
			l0.3-0.1c0.2-0.1,0.3-0.1,0.5-0.1c0.2,0,0.4-0.1,0.6-0.1c0.1,0,0.2,0,0.3-0.1c0.1,0,0.2,0.3,0.2,0.3c0,0,0.1,0.3,0.2,0.3H47h0h0.8
			c0.1,0,0.1-0.3,0.2-0.3l0.2-0.1c0.1,0,0.1-0.1,0.2,0l0.6,0.1c0.2,0,0.3,0,0.4,0.1c0.1,0,0.2,0,0.3,0.1l0.5,0.2
			c0.1,0,0.2,0.1,0.2,0.1c0.4,0.2,0.6,0.4,0.7,0.7c0.1,0.2,0.1,0.5,0.1,0.6c0,0,0.2,2.8,0.2,3.1c0,0.5,0.1,1.1,0.1,1.7l0.1,1.3
			c0.1,1.7,0.3,3.6,0.5,5.8l0.2,2.2l0.6,4.8c0.1,0.7,0.2,1.4,0.3,2.1l0.5,3.3l0.5,2.9c0.2,1.4,0.5,2.8,0.8,4.3
			c0.1,0.6,0.4,1.9,0.4,1.9c0.9,4.3,1.9,8.8,3.2,13.5c0.2,0.9,0.5,1.8,0.7,2.7l0.8,2.9c0.1,0.4,0.2,0.8,0.4,1.2l0.8,2.7
			c0.2,0.6,0.4,1.2,0.6,1.8l1.3,4l1.4,4c0.3,0.9,0.6,1.7,1,2.6l0.6,1.5c1.2,3,2.3,5.8,3.4,8.3c0.4,1,0.9,2,1.3,3l0.6,1.3
			c0.5,1.1,1,2.2,1.6,3.3l0.5,1c1.6,3.2,3,6,4.5,8.7c3.3,6.1,6.9,12,10.6,17.6l1.9,2.8c0.4,0.5,0.7,1.1,1.1,1.6l2.4,3.3l2.4,3.3
			c0.4,0.5,0.8,1,1.2,1.5l2.2,2.8c0.6,0.7,1.2,1.5,1.8,2.2c0.8,1,1.7,2.1,2.6,3.1c0.4,0.4,0.7,0.8,1.1,1.2c0.4,0.5,0.9,1,1.3,1.5
			l2.5,2.8l2.5,2.6c0.5,0.5,1,1,1.5,1.5l0.9,0.9c1.1,1.1,2.1,2.1,3.2,3.2c11.4,10.9,24.5,20.1,39,27.6l1,0.5
			c0.6,0.3,1.1,0.6,1.7,0.9l2.9,1.4c0.4,0.2,0.9,0.4,1.3,0.6l4.2,1.9l3.3,1.3c0.8,0.3,1.6,0.7,2.4,1l2.9,1.1
			c0.6,0.2,1.2,0.4,1.8,0.6c0.4,0.1,0.7,0.3,1.1,0.4c1.9,0.7,3.9,1.3,5.8,1.9c0.9,0.3,1.7,0.5,2.4,0.7l1.5,0.4
			c0.7,0.2,1.4,0.4,2.1,0.6l4.5,1.2l4.5,1.1l3,0.6c1.3,0.3,2.6,0.5,3.9,0.8c0.7,0.1,1.5,0.3,2.2,0.4c0.5,0.1,1,0.2,1.5,0.3l1.5,0.3
			c0.4,0.1,0.8,0.1,1.2,0.2c0.6,0.1,1.2,0.2,1.8,0.3l3.1,0.4l1.5,0.2l4.6,0.5l3.1,0.3c4.2,0.4,8.3,0.6,12.2,0.8l3.4,0.1
			c0.7,0,1.4,0,2.2,0l4.4,0l5.9-0.2c0.8,0,1.6,0,2.3-0.1l6-0.4l5.9-0.6c0.7-0.1,1.4-0.2,2.1-0.3l3.8-0.5c7.5-1.1,15.2-2.7,22.9-4.7
			l5.5-1.6c1.1-0.3,2.2-0.7,3.4-1.1c0.7-0.2,3.4-1.1,3.4-1.1l4.7-1.7c0.6-0.2,1.2-0.4,1.8-0.7l2.6-1c3.1-1.2,6-2.5,8.9-3.8l1.1-0.5
			l4.8-2.3c0.6-0.3,1.1-0.6,1.7-0.8l3-1.6c0.3-0.2,0.6-0.3,0.9-0.5c0.5-0.2,0.9-0.5,1.4-0.8c0.6-0.4,1.3-0.7,1.9-1.1
			c0,0,1.3-0.7,1.7-1c1-0.6,2.1-1.2,3.1-1.8l4.4-2.7c0,0,3.4-2.2,4.2-2.7c1-0.6,2-1.4,3-2l1.1-0.7c0.4-0.3,0.8-0.6,1.2-0.8
			c0.9-0.7,1.8-1.3,2.7-2c1.3-1,2.6-1.9,3.8-2.9c0.7-0.6,1.5-1.2,2.2-1.8c0.5-0.4,3.2-2.6,3.2-2.6l5.1-4.4c0,0,4.2-3.9,4.7-4.4
			c0.5-0.5,3.8-3.7,4.4-4.4c0.6-0.6,1.2-1.2,1.7-1.8l3-3.2c0.2-0.2,4.4-4.9,4.4-4.9c0.4-0.4,0.8-0.9,1.1-1.4l2.3-2.7
			c0.6-0.7,1.2-1.5,1.8-2.2l2.4-3.1c2.7-3.6,4.9-6.8,6.8-9.6l1.5-2.2c0,0,1.9-3.1,2.3-3.6c0.5-0.8,1-1.5,1.4-2.2l3.1-5.4l3.7-6.9
			l11.4,6.2l-3.3,6.2c-0.1,0.2-0.2,0.4-0.3,0.7l-0.4,0.8c-0.3,0.5-3,5.1-3,5.1c-0.5,0.8-1,1.7-1.6,2.6l-2.3,3.7l-1.5,2.3
			c-4.8,7.3-10.4,14.6-16.7,21.7l-0.2,0.3c-0.8,0.9-1.6,1.8-2.4,2.7c-0.2,0.2-0.7,0.8-0.7,0.8s-2.9,3-3.2,3.4
			c-0.6,0.7-1.3,1.3-1.9,2c-1,1-2.1,2-3.2,3.1c-0.4,0.4-1.6,1.6-1.6,1.6l-5.1,4.6l-5.4,4.6L379,473c-0.9,0.7-1.8,1.4-2.7,2.2l-4,3
			c-1,0.7-2,1.4-3,2.1c-0.4,0.3-2.3,1.6-2.3,1.6c-1.1,0.7-2.1,1.5-3.3,2.2l-4.4,2.8l-4.6,2.7c-1.1,0.7-2.3,1.3-3.4,1.9
			c-0.4,0.2-0.9,0.5-1.3,0.7c-0.8,0.4-1.6,0.9-2.4,1.3c-0.5,0.3-1,0.5-1.6,0.8c-0.3,0.2-0.6,0.3-0.9,0.5c0,0-3.1,1.5-3.4,1.7
			c-0.6,0.3-1.1,0.6-1.7,0.8l-5.1,2.4L334,500c-3.3,1.4-6.6,2.8-10.1,4.1l-2.7,1c-0.6,0.2-1.2,0.4-1.8,0.6l-4,1.3
			c-0.4,0.1-0.9,0.3-1.3,0.4l-3.3,1c-1.3,0.4-2.6,0.8-3.9,1.1l-5.9,1.5c-7.9,1.9-16,3.4-24.3,4.4l-3.8,0.4c-0.8,0.1-1.6,0.2-2.5,0.2
			l-6.2,0.5l-6.3,0.2c-0.9,0-1.7,0.3-2.6,0.3l-5.4,0.3H249.4z"/>
            <path id="XMLID_94_" class="st0" d="M365.4,472.9l0.7-0.6c2.6-2.3,5.1-4.6,7.5-6.9c5.2-5,10.1-10.1,14.5-15.2
			c4.6-5.3,9-10.8,13-16.5c4.1-5.7,7.9-11.7,11.4-17.8c3.5-6.1,6.8-12.5,9.6-18.9c2.9-6.5,5.6-13.3,7.8-20.1
			c2.3-6.8,4.2-13.8,5.8-20.8c1.6-7.1,2.8-14.4,3.7-21.6c0.8-7,1.3-14.3,1.3-21.8c0.1-7.1-0.2-14.5-0.8-22c-0.6-7-1.4-14.3-2.6-21.8
			c-1.3-8.3-2.5-15-3.9-21.2c-1.7-7.6-3.8-14-6.2-19.7c-2.4-5.5-5.2-10.5-8.5-14.9c-3.4-4.6-7.3-8.3-11.4-11.1
			c-4.5-3.1-9.4-5-14.3-5.8c-1.6-0.2-3.2-0.3-4.8-0.3c-3.9,0-7.9,0.6-11.9,1.9c-5.2,1.7-10.3,4.4-15.3,8.1c-4.6,3.4-8.9,7.5-13,12.3
			c-3.9,4.6-7.6,10-11.3,16.3c-3.4,5.7-6.6,11.9-9.6,18.4c-1.8,3.9-3.5,7.9-5,11.7c-1.6,4.1-3,8.3-4.2,12.4
			c-1.2,4.2-2.3,8.4-3.1,12.5c-0.9,4.2-1.6,8.5-2,12.7c-0.5,4.3-0.8,8.6-0.8,12.9c-0.1,4.3,0.1,8.7,0.5,13c0.4,4.4,1,8.8,1.8,13.1
			c0.2,1.1,0.4,2.2,0.7,3.3c0,0.1,0.1,0.3,0.1,0.4c0.1,0.4,0.2,0.9,0.3,1.4c0,0.3,0.1,1.1-0.4,2c-0.5,0.9-1.4,1.4-2.1,1.7
			c-0.8,0.3-1.5,0.5-2.2,0.7c-0.6,0.1-1.2,0.3-1.7,0.4l-0.1,0c-0.5,0.1-1,0.3-1.6,0.4l-7.1,2.1c-0.7,0.2-1.3,0.5-2,0.7
			c-0.5,0.2-1,0.4-1.6,0.6c-0.7,0.2-1.5,0.5-2.4,0.6c-0.3,0.1-0.7,0.1-1.2,0.1c-0.6,0-1.1-0.1-1.6-0.3c-1.7-0.7-2.2-2.5-2.4-3.3
			l-0.1-0.5c-0.2-0.8-0.4-1.6-0.7-2.4c-0.5-1.9-1.2-3.8-2-5.7c-1.4-3.6-3.3-7.2-5.4-10.8c-2-3.3-4.4-6.6-7-9.9
			c-1.5-1.9-2.8-3.4-4.1-4.8l-1.5-1.6c-1-1-1.9-2.1-2.9-3.1c-2.8-2.9-5.7-5.5-8.9-8c-3.2-2.5-6.5-4.7-9.9-6.6
			c-3.5-2-7.1-3.6-10.8-4.9c-1-0.3-1.9-0.6-2.7-0.9c-0.6-0.2-1.2-0.2-2-0.2c-0.2,0-0.5,0-0.8,0c-2.4,0.1-4.5,0.4-6.4,0.9
			c-3.9,0.9-7.7,2.8-11.3,5.5c-3.1,2.4-6.2,5.4-9,9c-2.7,3.5-4.8,7.1-6.1,10.6c-1.4,3.6-2.1,7.6-2.3,11.7c-0.2,3.8,0.2,7.9,1,12.1
			c0.8,3.9,2,7.9,3.5,11.9c1.4,3.7,3.2,7.4,5.3,11c2,3.4,4.3,6.8,6.9,10c2.5,3.1,5.2,6.1,8.4,9.3c2.9,2.9,6.1,5.8,9.4,8.5
			c3.2,2.6,6.6,5.2,10.1,7.6c3.5,2.4,7.1,4.8,10.9,7c3.9,2.3,7.9,4.5,11.9,6.5c4.2,2.1,8.4,4,12.6,5.7c4.7,1.9,9,3.6,13.1,5
			c4.6,1.6,9.1,3,13.4,4.2c4.6,1.2,9.2,2.3,13.7,3.3c4.7,1,9.4,1.8,14,2.4c4.8,0.6,9.6,1.1,14.1,1.3c3.1,0.2,6.2,0.3,9.2,0.3
			c1.7,0,3.3,0,4.9-0.1c4.8-0.2,9.6-0.5,14.1-1.1c4.5-0.6,9-1.4,13.3-2.5c4.5-1.1,8.9-2.5,13-4.1l0.9-0.3l1.7,3.5l-0.8,0.5
			c-2.8,1.7-5.9,3.2-9,4.7c-6.1,2.8-12.8,5-20,6.8c-6.8,1.7-14.1,2.8-21.7,3.5c-4.8,0.4-9.8,0.6-14.8,0.6c-2.5,0-5-0.1-7.6-0.2
			c-7.3-0.3-14.8-1-22.4-2.2c-7.3-1.1-14.6-2.7-22-4.6c-7.3-1.9-14.4-4.2-21.2-6.8c-7-2.7-13.8-5.7-20.2-8.9
			c-6.4-3.3-12.5-6.8-18.1-10.6c-5.9-4-11.5-8.2-16.4-12.7c-5-4.5-9.6-9.4-13.6-14.5c-4.3-5.5-7.9-11.2-10.7-17
			c-3.2-6.6-5.6-13.6-7-20.7c-0.7-3.5-1.2-7.1-1.5-11c-0.3-4.3-0.3-7.9,0.1-11.3c0.8-6.7,3.3-13.5,7.3-19.8
			c3.6-5.6,8.3-10.7,13.6-14.8c5.5-4.2,11.8-7.1,18.1-8.4c2.5-0.5,5.1-0.7,7.8-0.7c1.2,0,2.4,0.1,3.7,0.1c1.8,0.1,3.7,0.4,5.7,0.8
			c0.7,0.1,1.4,0.3,2.1,0.4c1.1,0.2,2.2,0.5,3.2,0.6c0.9,0.1,1.8,0.3,2.7,0.4l0.1,0c0.8,0.1,1.7,0.2,2.5,0.3
			c1.7,0.3,3.5,0.6,5.5,1.1c3.5,0.8,7.1,1.9,10.5,3.1c6.9,2.5,13.2,5.8,18.9,9.7c3,2.1,5.9,4.4,8.5,6.8c0.2,0.2,0.4,0.3,0.6,0.5
			c0.2-2.8,0.3-5.7,0.6-8.5c0.4-4.1,1-8.2,1.7-12.3c0.7-4,1.6-8.1,2.7-12c1-4,2.3-7.9,3.6-11.8c1.4-3.9,2.9-7.7,4.5-11.4
			c1.7-3.7,3.5-7.4,5.5-11c2-3.6,4.2-7.1,6.4-10.5c2.3-3.4,4.8-6.7,7.4-9.9c2.6-3.2,5.4-6.3,8.2-9.2c2.9-3,6-5.8,9-8.4
			c3.3-2.7,6.6-5.2,10-7.3c3.6-2.3,7.2-4.3,10.9-5.9c3.9-1.7,7.9-3.1,11.8-4.1c4.1-1,8.4-1.6,12.6-1.7c0.3,0,0.7,0,1,0
			c3.8,0,7.6,0.4,11.4,1.2c4.1,0.8,8.1,2.1,11.9,3.8c3.8,1.7,7.5,3.7,11,6.2c3.3,2.3,6.6,5.1,9.7,8.1c2.9,2.8,5.6,6,8.1,9.4
			c2.4,3.2,4.7,6.8,6.8,10.5c2,3.5,3.8,7.2,5.5,11.1c1.8,4.1,3.5,8.4,5,12.8c1.5,4.4,2.9,8.8,4.1,13.3c1.2,4.5,2.3,9,3.1,13.5
			c0.9,4.6,1.6,9.2,2.1,13.8c0.5,4.6,0.8,9.3,1,14c0.1,4.8,0.1,9.8-0.1,14.8c-0.2,4.8-0.6,9.7-1.2,14.7c-0.6,4.7-1.3,9.5-2.2,14.2
			c-0.9,4.7-2,9.4-3.2,14c-1.2,4.4-2.5,8.9-4,13.3c-1.4,4.1-3,8.3-4.6,12.3c-1.7,4-3.5,8.1-5.4,11.9c-1.9,3.9-4,7.8-6.2,11.6
			c-2.2,3.8-4.5,7.5-6.9,11.1c-2.4,3.6-5,7.2-7.7,10.6c-2.8,3.6-5.8,7.2-8.8,10.6c-3.1,3.4-6.3,6.7-9.5,9.9
			c-3.3,3.1-6.7,6.2-10.2,9.1c-3.5,2.9-7.2,5.7-10.9,8.3c-3.8,2.7-7.7,5.1-11.5,7.4l-0.8,0.5L365.4,472.9z"/>
            <path id="XMLID_83_" class="st0" d="M366.7,473.1c2.6-2.3,5.1-4.6,7.5-6.9c5.2-5,10.1-10.1,14.6-15.3c4.6-5.3,9-10.9,13.1-16.6
			c4.1-5.7,8-11.8,11.5-17.9c3.5-6.1,6.8-12.5,9.7-19c2.9-6.6,5.6-13.3,7.9-20.2c2.3-6.8,4.2-13.9,5.8-20.9
			c1.6-7.2,2.8-14.5,3.7-21.7c0.8-7,1.3-14.4,1.3-21.9c0.1-7.1-0.2-14.5-0.8-22.1c-0.6-7-1.4-14.4-2.6-21.9c-1.3-8.3-2.5-15-4-21.3
			c-1.8-7.6-3.8-14.1-6.2-19.8c-2.4-5.6-5.3-10.7-8.6-15.1c-3.5-4.7-7.4-8.5-11.6-11.3c-4.6-3.1-9.7-5.2-14.7-5.9
			c-1.6-0.2-3.3-0.4-4.9-0.4c-4,0-8.1,0.7-12.2,2c-5.3,1.7-10.5,4.4-15.6,8.2c-4.6,3.4-9,7.6-13.1,12.5c-3.9,4.7-7.7,10.1-11.4,16.5
			c-3.4,5.8-6.6,12-9.6,18.5c-1.8,3.9-3.5,7.9-5,11.8c-1.6,4.1-3,8.3-4.2,12.4c-1.2,4.2-2.3,8.4-3.2,12.6c-0.9,4.3-1.6,8.6-2,12.8
			c-0.5,4.3-0.8,8.7-0.8,13c-0.1,4.4,0.1,8.8,0.5,13.1c0.4,4.4,1,8.8,1.9,13.2c0.2,1.1,0.4,2.2,0.7,3.3c0,0.2,0.1,0.3,0.1,0.5
			c0.1,0.4,0.2,0.8,0.3,1.3c0,0.3,0,0.8-0.3,1.4c-0.4,0.6-1.1,1-1.7,1.3c-0.7,0.3-1.4,0.5-2,0.7c-0.6,0.1-1.1,0.3-1.7,0.4l-0.1,0
			c-0.6,0.1-1.1,0.3-1.7,0.4l-7.1,2.1c-0.7,0.2-1.4,0.5-2.1,0.8c-0.5,0.2-1,0.4-1.5,0.6c-0.6,0.2-1.4,0.5-2.2,0.6
			c-0.3,0-0.6,0.1-1,0.1c-0.4,0-0.8-0.1-1.2-0.2c-1.2-0.5-1.6-1.9-1.8-2.6l-0.1-0.5c-0.2-0.8-0.4-1.7-0.7-2.5
			c-0.6-1.9-1.2-3.9-2-5.8c-1.5-3.6-3.3-7.3-5.5-10.9c-2-3.3-4.4-6.7-7.1-10c-1.5-1.9-2.9-3.5-4.1-4.8l-1.4-1.5c-1-1.1-2-2.2-3-3.2
			c-2.8-2.9-5.8-5.6-9-8.1c-3.2-2.5-6.6-4.8-10.1-6.7c-3.6-2-7.3-3.7-10.9-4.9c-1-0.3-1.9-0.6-2.7-0.9c-0.7-0.2-1.4-0.3-2.2-0.3
			c-0.3,0-0.5,0-0.8,0c-2.5,0.1-4.6,0.4-6.6,0.9c-4,1-7.9,2.9-11.6,5.7c-3.2,2.4-6.3,5.5-9.2,9.2c-2.8,3.6-4.9,7.3-6.3,10.9
			c-1.4,3.7-2.2,7.8-2.4,12c-0.2,3.9,0.2,8,1.1,12.3c0.8,4,2,8,3.5,12c1.5,3.8,3.3,7.5,5.4,11.1c2,3.5,4.4,6.9,7,10.2
			c2.5,3.1,5.2,6.2,8.4,9.4c2.9,2.9,6.1,5.8,9.4,8.5c3.2,2.6,6.6,5.2,10.2,7.7c3.5,2.4,7.2,4.8,11,7c3.9,2.3,7.9,4.5,12,6.5
			c4.2,2.1,8.5,4,12.7,5.8c4.7,1.9,9,3.6,13.2,5c4.6,1.6,9.2,3,13.5,4.2c4.6,1.3,9.2,2.4,13.8,3.3c4.8,1,9.5,1.8,14.1,2.4
			c4.9,0.6,9.7,1.1,14.2,1.3c3.1,0.2,6.3,0.3,9.3,0.3c1.7,0,3.3,0,5-0.1c4.8-0.2,9.6-0.5,14.2-1.1c4.6-0.6,9.1-1.5,13.5-2.5
			c4.5-1.1,8.9-2.5,13.1-4.1l0.9,1.8c-2.8,1.7-5.8,3.2-8.9,4.6c-6.1,2.7-12.7,5-19.8,6.7c-6.8,1.6-14,2.8-21.6,3.5
			c-4.8,0.4-9.7,0.6-14.7,0.6c-2.5,0-5-0.1-7.5-0.2c-7.3-0.3-14.8-1-22.3-2.2c-7.2-1.1-14.6-2.6-21.8-4.6
			c-7.3-1.9-14.4-4.2-21.1-6.8c-7-2.7-13.8-5.7-20.1-8.9c-6.3-3.2-12.4-6.8-18-10.6c-5.9-4-11.4-8.2-16.3-12.6
			c-5-4.5-9.5-9.3-13.5-14.3c-4.3-5.5-7.9-11.1-10.6-16.8c-3.2-6.6-5.5-13.4-6.9-20.4c-0.7-3.4-1.2-7.1-1.5-10.9
			c-0.3-4.2-0.3-7.8,0.1-11.1c0.8-6.5,3.2-13.2,7.2-19.4c3.5-5.5,8.1-10.5,13.4-14.6c5.4-4.1,11.5-7,17.7-8.2c2.4-0.5,5-0.7,7.6-0.7
			c1.2,0,2.4,0,3.6,0.1c1.8,0.1,3.7,0.4,5.6,0.8c0.7,0.1,1.4,0.3,2.1,0.4c1.1,0.2,2.2,0.5,3.3,0.6c0.9,0.1,1.8,0.3,2.7,0.4
			c0.9,0.1,1.8,0.2,2.6,0.4c1.7,0.3,3.4,0.6,5.4,1c3.5,0.8,7,1.8,10.4,3.1c6.8,2.5,13.1,5.7,18.7,9.6c3,2,5.8,4.3,8.4,6.7
			c0.4,0.4,0.8,0.7,1.2,1.1c0.3,0.3,0.6,0.5,0.9,0.8c0,0,0,0,0,0c0-0.1,0-0.3,0-0.4c0.2-3.3,0.4-6.7,0.7-10.1
			c0.4-4.1,1-8.2,1.7-12.2c0.7-4,1.6-8,2.6-11.9c1-3.9,2.2-7.9,3.6-11.7c1.4-3.8,2.9-7.6,4.5-11.3c1.7-3.7,3.5-7.4,5.5-10.9
			c2-3.5,4.1-7,6.4-10.4c2.3-3.4,4.7-6.7,7.3-9.8c2.6-3.2,5.4-6.3,8.2-9.2c2.9-3,5.9-5.8,9-8.3c3.2-2.7,6.6-5.1,9.9-7.3
			c3.5-2.3,7.1-4.2,10.7-5.8c3.8-1.7,7.8-3.1,11.6-4.1c4.1-1,8.2-1.6,12.4-1.6c0.3,0,0.7,0,1,0c3.7,0,7.5,0.4,11.2,1.1
			c4,0.8,7.9,2.1,11.7,3.7c3.8,1.6,7.4,3.7,10.8,6.1c3.3,2.3,6.5,5,9.5,8c2.8,2.8,5.5,6,8,9.3c2.4,3.2,4.7,6.7,6.7,10.4
			c2,3.5,3.8,7.2,5.5,11.1c1.8,4.1,3.5,8.4,5,12.8c1.5,4.3,2.9,8.8,4.1,13.2c1.2,4.4,2.2,9,3.1,13.5c0.9,4.5,1.6,9.1,2.1,13.7
			c0.5,4.6,0.8,9.3,1,14c0.1,4.7,0.1,9.7-0.1,14.7c-0.2,4.8-0.6,9.7-1.2,14.6c-0.6,4.7-1.3,9.4-2.2,14.1c-0.9,4.7-2,9.4-3.2,13.9
			c-1.2,4.4-2.5,8.9-4,13.2c-1.4,4.1-3,8.2-4.6,12.2c-1.7,4-3.5,8-5.4,11.9c-1.9,3.9-4,7.8-6.2,11.5c-2.2,3.7-4.5,7.5-6.9,11
			c-2.4,3.6-5,7.2-7.6,10.6c-2.8,3.6-5.7,7.1-8.8,10.5c-3,3.4-6.2,6.7-9.5,9.8c-3.3,3.1-6.7,6.2-10.1,9c-3.5,2.9-7.2,5.7-10.8,8.3
			c-3.8,2.6-7.6,5.1-11.5,7.3L366.7,473.1z"/>
	</g>
</g>
    <g id="Logo">
	<g id="Text_1_">
		<g id="HENS">
			<path id="S_2_" d="M493.6,331.9c3.6,0.8,5.9,4,6.1,8.7c0.1,1.4,0,2.8-0.3,4.3c-1,6.1-4.6,12.6-9.5,14.3c-1.2,0.4-2.5-0.2-3-1.4
				c-0.4-1.2,0.2-2.5,1.4-3c3.6-1.3,7-8.3,6.7-14c-0.1-1.8-0.6-4-2.5-4.4c-2.6-0.6-3.9,1.9-6.2,7.2c-1.5,3.5-3.1,7.1-5.9,9.2
				c-2.6,2.1-5.7,2.3-8.1,0.5c-3.7-2.7-5-9.1-3-14.6c1-2.8,2.1-4.3,3.6-6.2c0.8-1,2.2-1.2,3.3-0.5c1,0.8,1.2,2.2,0.5,3.3
				c-1.4,1.9-2.1,3-2.9,5.1c-1.6,4.2-0.2,8.1,1.4,9.3c0.3,0.2,1.1,0.8,2.5-0.4c0,0,0.1-0.1,0.1-0.1c1.8-1.3,3.1-4.3,4.4-7.3
				C484.3,336.7,487,330.4,493.6,331.9z"/>
            <path id="N" d="M467.1,363.2c3.3,1.2,6.9,2.4,10.4,3.6c4.3,1.5,8.6,3,12.6,4.4c0.4,0.1,0.7,0.3,0.9,0.6c0.3,0.2,0.6,0.6,0.7,0.9
				c0.2,0.5,0.2,1.1,0.1,1.6c-0.2,0.6-0.7,1.1-1.3,1.4c-4.5,1.9-9.6,4.6-14.4,7.2c-3.9,2.1-8,4.3-11.9,6.1c1.4,0.5,2.9,0.9,4.3,1.4
				c4.6,1.5,9.3,3,13.6,4.8c1.1,0.5,1.7,1.7,1.3,2.9c0,0.1,0,0.1-0.1,0.2c-0.5,1.2-1.9,1.7-3.1,1.2c-4.1-1.8-8.7-3.2-13.2-4.7
				c-3.2-1-6.5-2.1-9.6-3.2c-1.1-0.4-1.7-1.5-1.5-2.6c0-0.9,0.6-1.8,1.5-2.2c5.1-2,10.9-5,16.4-8c3.2-1.7,6.5-3.5,9.6-5
				c-2.5-0.9-5-1.7-7.6-2.6c-3.5-1.2-7-2.4-10.4-3.6c-1.2-0.4-1.9-1.7-1.4-3c0,0,0,0,0,0C464.6,363.5,465.9,362.8,467.1,363.2z"/>
            <path id="E_1_" d="M477.1,409.6c1,0.7,1.2,2,0.7,3c-0.1,0.1-0.1,0.2-0.2,0.3c-2.1,2.9-6.3,11.1-8.8,16c-0.8,1.5-1.4,2.7-1.9,3.6
				c-0.8,1.5-1.7,3.3-3.8,2.4c-2.4-1-5.8-2.9-9.8-5.1c-3.8-2.1-8.1-4.5-11.8-6.3c-0.6-0.3-1-0.8-1.2-1.4c-0.4-1.3-0.2-1.6,3.7-8.7
				c1.5-2.7,3.5-6.3,6.2-11.3c0.6-1.1,2-1.6,3.2-0.9c1.1,0.6,1.5,2,0.9,3.2c0,0,0,0,0,0c-2.7,5-4.8,8.7-6.2,11.3
				c-1.1,2-2,3.6-2.5,4.6c2.2,1.1,4.5,2.3,6.7,3.6c1.9-4,3.6-7.1,5.4-10.3c1.3-2.4,2.7-4.9,4.3-8c0,0,0,0,0,0c0.6-1.1,2-1.6,3.1-1
				c1.1,0.6,1.6,2,1,3.1c-1.6,3.2-3,5.7-4.4,8.1c-1.9,3.4-3.5,6.3-5.4,10.3c2.5,1.4,4.8,2.7,6.7,3.6c0.4-0.9,1-2,1.6-3
				c2.7-5.4,6.9-13.5,9.2-16.6C474.5,409,476,408.8,477.1,409.6z"/>
            <path id="H_1_" d="M456.6,444.6c1.1,0.7,1.3,2.2,0.6,3.2c0,0,0,0.1-0.1,0.1c-0.7,1-2.1,1.2-3.2,0.5c-1.9-1.3-5.2-3.7-8.5-6.2
				c-2.7,3.4-5.8,7.6-8.8,11.7c-1.4,1.9-2.7,3.7-4,5.5c3,2.2,5.9,4.4,8.4,6.3c1,0.8,1.2,2.2,0.5,3.3c-0.8,1-2.2,1.2-3.3,0.5
				c-4.6-3.4-10.5-7.9-15.7-11.7l-4.1-3c-1-0.8-1.2-2.2-0.5-3.3c0,0,0,0,0,0c0.8-1,2.2-1.2,3.3-0.5l4.1,3c1.2,0.9,2.3,1.7,3.5,2.6
				c1.3-1.7,2.6-3.6,4-5.4c3-4.1,6.1-8.3,8.8-11.8c-3.3-2.5-6.4-4.8-8.1-6.2c-1-0.8-1.2-2.2-0.4-3.2c0,0,0,0,0,0
				c0.8-1,2.2-1.2,3.3-0.4C440.3,432.5,452.1,441.6,456.6,444.6z"/>
		</g>
        <g id="FOR">
			<path id="R_2_" d="M419.9,494.3c0.2,0.9-0.1,1.8-0.8,2.4c-0.2,0.2-0.5,0.4-0.9,0.4c-3.3,0.9-6.8,0.5-10.1,0.1
				c-3.2-0.4-6.1-0.7-8.8,0.1c-1.1,1-2.2,2-3.5,3c-0.8,0.7-1.7,1.3-2.6,2c1.6,2.1,3.2,4,4.7,5.9c0.8,1,0.7,2.5-0.3,3.3
				c-1,0.8-2.5,0.7-3.3-0.3c-2-2.4-4.1-5.1-6.3-7.9c-3-3.8-6-7.7-8.8-10.9c-0.1-0.1-0.2-0.3-0.3-0.4c-0.9-0.9-1-2.3-0.2-3.3
				c7.8-8.7,14.5-13,19.8-12.9c2.5,0.1,4.7,1.1,6.2,3c1.7,2.1,2.4,4.3,2.1,6.8c-0.3,2.1-1.2,4.3-2.9,6.6c1.6,0.1,3.1,0.2,4.6,0.4
				c3,0.3,5.9,0.7,8.4,0C418.3,492.3,419.6,493.1,419.9,494.3z M402.4,485.1c0.1-1.2-0.2-2.3-1-3.3c-0.7-0.9-1.6-1.3-2.7-1.3
				c-1.7,0-6.5,0.9-14.9,9.9c2.2,2.6,4.5,5.5,6.7,8.4C397.9,493,402,488.4,402.4,485.1z"/>
            <path id="O" d="M379.3,520.5c-0.3,0.7-0.6,1.3-1,2c0,0,0,0,0,0c-1.7,2.7-3.9,4.8-6.3,6.2c-3.6,2-7.8,2.4-11.9,1
				c-7.1-2.4-11.5-9.4-10.6-17.1c0.8-7.2,6.3-13,13.4-14.2c6.4-1.1,12,2.7,14.8,6.8C380.7,510,381.3,515.6,379.3,520.5z
				 M373.7,507.8c-1.9-2.9-5.8-5.5-10.1-4.8c-1.3,0.2-2.5,0.7-3.6,1.3c-3.2,1.8-5.4,5-5.9,8.8c-0.7,6.4,3.4,10.8,7.5,12.2
				c4.9,1.7,9.7-0.3,12.7-5.3l0,0c0.3-0.4,0.5-0.9,0.7-1.3C376.4,515.3,375.9,511.2,373.7,507.8z"/>
            <path id="F_1_" d="M340.1,514c0.1,0.7-0.2,1.5-0.7,2c-0.7,0.6-1.4,0.8-2.2,1.1l-0.3,0.1c-1.4,0.5-2.8,1-4.6,1.7
				c-0.4,0.2-0.9,0.3-1.3,0.4c-0.2,0.1-0.4,0.1-0.7,0.2c-0.4,0.1-0.8,0.3-1.2,0.5c-0.2,0.1-0.4,0.2-0.6,0.3
				c-1.1,0.4-2.2,0.8-3.3,1.2l-0.3,0.1c0,0-0.1,0-0.2,0.1c-0.1,0-0.2,0.1-0.2,0.1l-0.1,0c-0.3,0.1-0.5,0.2-0.8,0.2l-0.2,0.1
				c-0.2,0.1-0.5,0.2-0.7,0.2c-0.4,0.1-0.8,0.3-1.2,0.4c-0.4,0.1-0.8,0.3-1.2,0.4c-0.2,0.1-0.4,0.2-0.7,0.2c0,0,0,0-0.1,0
				c-0.1,0-0.3,0.1-0.4,0.1c-0.3,0.1-0.6,0.2-0.9,0.4c-0.3,0.1-0.6,0.3-1,0.3l-0.1,0c-0.3,0.1-0.6,0.2-0.7,0.4
				c-0.1,0.1,0,0.3,0.1,0.5c0.1,0.2,0.2,0.5,0.3,0.7c0,0.1,0.1,0.2,0.1,0.3c0.5,1.3,1,2.7,1.5,4c0.1,0.2,0.1,0.4,0.2,0.6
				c0.1,0.4,0.3,0.9,0.5,1.3c0.1,0.2,0.2,0.1,0.5,0l0,0c0.2-0.1,0.3-0.1,0.5-0.2c0.2-0.1,0.3-0.1,0.5-0.2c0.3-0.1,0.6-0.2,0.9-0.3
				l0.2-0.1c0.5-0.2,0.9-0.3,1.4-0.4c0.2-0.1,0.4-0.1,0.6-0.2c0.4-0.1,0.8-0.3,1.2-0.4c0.5-0.2,1.1-0.4,1.6-0.6
				c0.3-0.1,0.7-0.2,1-0.3l0.1-0.1c0.7-0.3,1.3-0.5,2-0.7c0.7-0.2,1.4-0.4,2.1-0.7c0.6-0.3,1.3-0.5,2-0.7c0.2-0.1,0.4-0.1,0.7-0.2
				c0.4-0.1,0.8-0.2,1.1-0.3c0.4-0.2,0.8-0.3,1.2-0.5c0.2-0.1,0.4-0.2,0.7-0.2l0.2-0.1c1-0.4,2.2-0.9,3.2-0.4
				c0.2,0.1,0.6,0.3,0.9,0.6c0.4,0.4,0.5,0.9,0.5,1.4c0,0.5-0.2,0.9-0.5,1.3c-0.4,0.6-1,0.8-1.6,1c-0.1,0-0.3,0.1-0.4,0.1
				c-0.2,0.1-0.4,0.1-0.6,0.2c-0.3,0.1-0.6,0.3-1,0.3c-0.2,0-0.3,0.1-0.5,0.2c-0.2,0.1-0.3,0.1-0.5,0.2c-0.1,0-0.2,0-0.2,0.1
				c-0.2,0.1-0.4,0.1-0.6,0.2c-0.3,0.1-0.7,0.3-1,0.3c-0.3,0-0.7,0.1-1.1,0.3c-0.2,0.1-0.3,0.1-0.5,0.2c-0.2,0.1-0.5,0.2-0.7,0.3
				c-0.2,0.1-0.4,0.1-0.6,0.2c-0.3,0.1-0.6,0.1-0.8,0.3l-0.3,0.1c-0.3,0.1-0.7,0.3-1,0.4c-0.8,0.2-1.6,0.5-2.4,0.8
				c-0.5,0.2-1.1,0.4-1.7,0.6c-0.4,0.1-0.8,0.2-1.1,0.3c-1,0.3-2.1,0.6-3,1c-0.1,0-0.1,0.1-0.2,0.1c-0.3,0.1-0.6,0.3-0.9,0.4
				c-0.2,0.1-0.2,0.1-0.2,0.4l0.1,0.2c0.1,0.3,0.2,0.7,0.3,1c0.1,0.3,0.2,0.6,0.3,0.9c0.1,0.2,0.1,0.4,0.2,0.5
				c0.2,0.5,0.3,0.9,0.5,1.3c0.1,0.3,0.2,0.5,0.3,0.8c0.2,0.4,0.3,0.8,0.4,1.2c0.1,0.3,0.2,0.6,0.3,0.9c0.2,0.6,0.5,1.3,0.7,1.8
				c0.2,0.4,0.4,1.1,0.4,1.6c0,0.5-0.3,1.1-0.8,1.5c-0.2,0.2-0.4,0.3-0.6,0.4c-0.3,0.1-0.6,0.1-1,0.1c-0.2,0-0.5-0.1-0.7-0.1l-0.1,0
				c-0.5-0.1-0.9-0.6-1.1-1.1l0-0.1c-0.1-0.3-0.2-0.7-0.4-1l-0.1-0.2c-0.1-0.3-0.2-0.5-0.3-0.8c0-0.1-0.1-0.3-0.1-0.4
				c-0.1-0.2-0.1-0.4-0.2-0.6l-0.2-0.5c-0.3-0.8-0.6-1.5-0.9-2.3c-0.1-0.2-0.2-0.5-0.2-0.7c-0.1-0.3-0.2-0.6-0.3-0.9l-0.1-0.2
				c-0.2-0.4-0.4-0.9-0.5-1.4c-0.1-0.2-0.2-0.4-0.2-0.6c-0.1-0.3-0.3-0.6-0.3-0.9c-0.1-0.5-0.3-0.9-0.4-1.3
				c-0.1-0.2-0.1-0.4-0.2-0.5c-0.1-0.2-0.1-0.3-0.2-0.5c-0.3-0.8-0.6-1.7-0.9-2.5c-0.1-0.4-0.3-0.9-0.4-1.3c-0.2-0.7-0.5-1.3-0.7-2
				c-0.1-0.3-0.3-0.7-0.4-1c-0.1-0.2-0.2-0.5-0.3-0.7c-0.1-0.3-0.2-0.6-0.3-0.8c-0.1-0.2-0.1-0.4-0.2-0.6c-0.1-0.5-0.3-1-0.5-1.5
				c-0.3-0.9-0.6-1.8,0.1-2.7c0.5-0.6,1.1-0.8,1.8-1c0.4-0.1,0.8-0.3,1.2-0.4c0.6-0.2,1.2-0.3,1.8-0.6c0.6-0.2,1.1-0.4,1.7-0.6
				c0.5-0.2,1.1-0.3,1.6-0.5c0.5-0.2,1-0.4,1.4-0.5l0.4-0.1c0,0,0,0,0,0c0.2-0.1,0.5-0.2,0.7-0.3c0.2-0.1,0.4-0.1,0.5-0.2
				c0.2-0.1,0.4-0.1,0.6-0.2c0.2-0.1,0.4-0.1,0.5-0.2c0.1,0,0.2-0.1,0.4-0.1c0.2-0.1,0.4-0.1,0.5-0.2c0.2-0.1,0.4-0.1,0.7-0.2
				c0.2-0.1,0.5-0.1,0.7-0.2c0.3-0.1,0.5-0.2,0.8-0.3c0.2-0.1,0.3-0.2,0.5-0.2c0.4-0.2,0.8-0.3,1.2-0.5l0.4-0.1
				c0.7-0.3,1.4-0.5,2.1-0.7c0.3-0.1,0.6-0.2,1-0.3c0.5-0.1,0.9-0.3,1.3-0.5c0.4-0.1,0.8-0.3,1.1-0.4c0.1,0,0.1,0,0.2-0.1
				c0.2,0,0.3-0.1,0.4-0.2c0.4-0.2,0.8-0.3,1.2-0.5l0.1,0c0.2-0.1,0.4-0.1,0.6-0.2c0.6-0.1,1.2,0,1.7,0.2
				C339.4,512.8,340,513.4,340.1,514z"/>
		</g>
        <g id="START">
			<path id="T" d="M286.9,530.6c-3.1,1.1-6.5,1.8-10.1,2.2c0.6,5,1,9.7,1.5,14.6c0.2,2.7,0.5,5.5,0.8,8.3c0.1,1.3-0.8,2.4-2.1,2.5
				c-1.3,0.1-2.4-0.8-2.5-2.1c-0.3-2.9-0.5-5.6-0.8-8.4c-0.4-4.9-0.9-9.6-1.5-14.6c-1.2,0.1-2.4,0.2-3.6,0.2c-2.1,0.1-4.1,0.2-6,0.4
				c-1.3,0.1-2.4-0.8-2.5-2.1c-0.1-1.3,0.8-2.4,2.1-2.5c0,0,0,0,0,0c2-0.2,4-0.3,6.1-0.4c6-0.4,12.2-0.7,17-2.5
				c1.2-0.5,2.5,0.2,3,1.4C288.7,528.8,288.1,530.1,286.9,530.6z"/>
            <path id="R_1_" d="M253.3,559.8c-0.4,0.8-1.3,1.3-2.2,1.2c-0.3,0-0.6-0.1-0.9-0.3c-3-1.6-5.3-4.2-7.5-6.7
				c-2.1-2.4-4.1-4.7-6.5-5.9c-1.4,0-3,0-4.6-0.1c-1-0.1-2.1-0.2-3.3-0.3c-0.2,2.6-0.4,5.1-0.5,7.5c-0.1,1.3-1.2,2.3-2.5,2.2
				c-1.3-0.1-2.3-1.2-2.2-2.5c0.2-3.1,0.5-6.5,0.7-10.1c0.4-4.8,0.8-9.7,1-14c0-0.2,0-0.3,0.1-0.5c-0.1-1.3,0.8-2.4,2.1-2.5
				c11.6-1.1,19.4,0.2,23.3,4c1.8,1.7,2.7,4,2.5,6.5c-0.2,2.6-1.2,4.8-3.1,6.4c-1.6,1.4-3.8,2.3-6.6,2.9c1.1,1.1,2.1,2.3,3.1,3.4
				c2,2.3,3.9,4.5,6.2,5.7C253.5,557.2,253.9,558.6,253.3,559.8z M246.6,541.1c0.9-0.8,1.4-1.8,1.5-3.2c0.1-1.1-0.3-2-1.1-2.8
				c-1.2-1.2-5.4-3.7-17.7-2.8c-0.2,3.4-0.5,7.1-0.7,10.8C238,544,244.1,543.3,246.6,541.1z"/>
            <path id="A" d="M209.7,554.6c-1.1,0.2-1.9-0.4-2.3-1.4c-0.3-0.5-0.3-1-0.4-1.5c-0.1-0.8-0.2-1.5-0.3-2.3
				c-0.1-0.7-0.3-1.4-0.4-2.2c-0.1-0.6-0.2-1.2-0.3-1.8c-0.2-0.8-0.2-1.6-0.4-2.3c0-0.1-0.1-1.2-0.2-1.2c-1.9-0.5-3.6-1.2-5.5-1.5
				c-1.2-0.2-2.4-0.7-3.6-1c-1.2-0.3-2.4-0.4-3.5-0.8c-1-0.3-1.9-0.5-2.9-0.7c-0.1,0-0.9,1.2-1,1.3c-0.4,0.5-0.8,1.1-1.2,1.6
				c-0.8,1.1-1.6,2.2-2.4,3.3c-0.3,0.4-0.5,0.9-0.8,1.3c-0.4,0.6-0.9,1.2-1.4,1.7c-0.3,0.3-0.8,0.6-1.2,0.6c-0.2,0-0.4,0-0.5,0
				c-0.9-0.1-1.8-0.5-2-1.4c-0.2-0.7,0.2-1.4,0.6-2c0.5-0.8,1-1.5,1.5-2.3c1-1.5,1.9-3,2.9-4.5c1-1.5,2.1-3.1,3.1-4.6
				c1.4-2.1,2.9-4.2,4.5-6.3c1-1.3,1.9-2.8,2.9-4.1c0.1-0.1,0.2-0.2,0.3-0.3c0,0,0,0,0.1-0.1c0.5-0.5,1.3-0.7,2-0.6
				c0.4,0.1,0.8,0.2,1.2,0.3c0.6,0.1,1.2,0.2,1.8,0.3c0.6,0.1,1.1,0.3,1.6,0.4c1.4,0.3,2.7,0.7,4,1c0.7,0.2,1.5,0.6,2,1.2
				c0.4,0.6,0.5,1.4,0.6,2.1c0.3,2.3,0.4,4.6,0.6,6.9c0.2,1.3,0.4,2.7,0.6,4c0.2,1.3,0.2,2.6,0.4,3.9c0.1,1.3,0.3,2.6,0.5,4
				c0.1,0.6,0.2,1.1,0.3,1.7c0.1,0.5,0.1,1.1,0.2,1.6c0.1,0.5,0.2,1,0.2,1.5c0,0.4,0.1,1,0,1.5C211.4,553.2,211,554.4,209.7,554.6z
				 M194,534.2c0.5,0.1,1,0.3,1.5,0.4c0.8,0.2,1.6,0.4,2.4,0.5c0.7,0.2,1.4,0.4,2.2,0.7c0.2,0.1,0.5,0.2,0.8,0.2
				c0.3,0.1,0.5,0.1,0.8,0.2c0.3,0.1,0.5,0.1,0.8,0.2c0.3,0.1,0.5,0.1,0.8,0.2c0.3,0.1,0.5,0.1,0.8,0.2c0.1,0,0.3,0.1,0.4,0.1
				c0.1,0,0.1,0,0.2,0c0,0,0.1,0,0.1,0c0,0,0,0,0.1,0c0,0,0-0.1,0-0.1c0-0.1,0-0.2-0.1-0.3c0-0.1,0-0.3,0-0.4c0-0.2,0-0.3,0-0.5
				c0-0.2,0-0.3,0-0.5c0-0.2,0-0.3,0-0.5c0-0.1,0-0.3,0-0.4c0-0.1,0-0.2,0-0.3c0-0.1,0-0.1,0-0.2c0-0.4-0.2-0.8-0.1-1.2
				c0-0.5,0.1-1-0.1-1.5c-0.1-0.5-0.2-0.9-0.3-1.4c0-0.4,0-0.8-0.1-1.2c-0.1-0.4-0.5-0.6-0.9-0.7c-1.3-0.4-2.6-0.7-3.8-1.1
				c-0.4-0.1-1.1-0.5-1.5-0.4c-0.4,0.1-0.7,0.9-0.9,1.2c-0.7,1.1-1.3,2.1-2,3.1c-0.4,0.5-0.7,1-1.1,1.6c-0.2,0.3-0.3,0.6-0.5,0.9
				c-0.2,0.2-0.5,0.4-0.4,0.6C193,534,193.8,534.1,194,534.2z"/>
            <path id="T_1_" d="M181.6,521.2c-3.2-0.4-6.6-1.5-9.9-2.8c-1.8,4.7-3.6,9-5.6,13.6c-1.1,2.5-2.1,5.1-3.2,7.7
				c-0.5,1.2-1.8,1.8-3,1.3c-1.2-0.5-1.8-1.8-1.3-3c1.1-2.7,2.2-5.2,3.2-7.8c1.9-4.6,3.8-8.9,5.6-13.6c-1.1-0.5-2.2-1-3.3-1.5
				c-1.9-0.9-3.7-1.7-5.5-2.4c-1.2-0.5-1.7-1.9-1.2-3c0.5-1.2,1.8-1.7,3-1.2c0,0,0,0,0,0c1.8,0.8,3.7,1.6,5.6,2.5
				c5.5,2.5,11.2,5.1,16.1,5.8c1.3,0.2,2.2,1.3,2,2.6C184,520.5,182.9,521.4,181.6,521.2z"/>
            <path id="S_1_" d="M145.6,525.5c-2,3.1-5.7,4.1-10.2,2.8c-1.3-0.4-2.7-1-4-1.7c-5.4-3-10.2-8.7-10.2-13.8c0-1.3,1.1-2.3,2.4-2.3
				c1.3,0,2.3,1.1,2.3,2.4c0,3.9,5.4,9.4,10.8,11.1c1.7,0.5,3.9,0.8,5-0.9c1.4-2.2-0.4-4.3-4.6-8.3c-2.8-2.6-5.6-5.4-6.6-8.7
				c-1.1-3.2-0.2-6.1,2.3-7.8c3.8-2.6,10.3-1.6,14.8,2.2c2.2,1.9,3.3,3.4,4.6,5.5c0.7,1.1,0.4,2.5-0.7,3.2c-1.1,0.7-2.5,0.4-3.2-0.7
				c-1.3-1.9-2-3-3.8-4.5c-3.4-2.9-7.6-3-9.2-1.9c-0.3,0.2-1.1,0.7-0.5,2.5c0,0,0,0.1,0,0.1c0.6,2.1,3,4.4,5.3,6.6
				C144.3,515.1,149.3,519.8,145.6,525.5z"/>
		</g>
        <g id="FRESH">
			<path id="H" d="M111.7,479.7c-3.2,3.6-13.2,14.6-16.6,18.9c-0.8,1-2.3,1.2-3.3,0.4c0,0-0.1,0-0.1-0.1c-0.9-0.8-1.1-2.2-0.3-3.2
				c1.5-1.8,4.1-4.9,6.9-8c-3.2-3-7.1-6.4-11-9.7c-1.8-1.5-3.5-3-5.1-4.4c-2.5,2.8-4.9,5.5-7,7.9c-0.8,1-2.3,1.1-3.3,0.2
				c-1-0.8-1.1-2.3-0.2-3.3c3.8-4.3,8.7-9.9,12.9-14.7l3.4-3.8c0.8-1,2.3-1.1,3.3-0.2c0,0,0,0,0,0c1,0.8,1.1,2.3,0.2,3.3l-3.4,3.8
				c-0.9,1.1-1.9,2.2-2.9,3.3c1.6,1.4,3.3,2.9,5.1,4.4c3.8,3.3,7.8,6.7,11,9.7c2.8-3.1,5.3-6,6.8-7.6c0.9-0.9,2.3-1,3.3-0.2
				c0,0,0,0,0,0C112.5,477.3,112.6,478.8,111.7,479.7L111.7,479.7z"/>
            <path id="S" d="M67.4,467.3c-3,2.2-6.8,1.8-10.5-1.1c-1.1-0.8-2.1-1.9-3.1-3c-3.9-4.8-6.4-11.8-4.4-16.6c0.5-1.2,1.8-1.8,3-1.3
				c1.2,0.5,1.8,1.8,1.3,3c-1.4,3.6,1.6,10.8,6.1,14.2c1.4,1.1,3.4,2.2,5,1c2.1-1.5,1.2-4.2-1.3-9.4c-1.6-3.5-3.3-7-3-10.5
				c0.2-3.4,2-5.8,5-6.4c4.5-1,10.2,2.2,13,7.4c1.4,2.6,1.8,4.4,2.3,6.8c0.3,1.3-0.5,2.5-1.8,2.7c-1.3,0.3-2.5-0.5-2.7-1.8
				c-0.5-2.3-0.8-3.6-1.9-5.5c-2.1-3.9-6-5.5-7.8-5.1c-0.4,0.1-1.3,0.3-1.4,2.2c0,0,0,0.1,0,0.1c-0.2,2.2,1.2,5.2,2.6,8.1
				C69.9,457.1,72.8,463.3,67.4,467.3z"/>
            <path id="E" d="M39.7,440.3c-1.1,0.4-2.3,0-2.9-1c-0.1-0.1-0.1-0.2-0.1-0.3c-1.3-3.3-5.9-11.3-8.7-16c-0.8-1.4-1.5-2.7-2-3.5
				c-0.8-1.5-1.8-3.3,0-4.5c2.1-1.5,5.6-3.3,9.6-5.4c3.8-2,8.1-4.3,11.7-6.5c0.6-0.3,1.2-0.4,1.9-0.3c1.3,0.4,1.5,0.7,5.3,7.8
				c1.4,2.7,3.4,6.4,6.1,11.4c0.6,1.1,0.2,2.6-0.9,3.2c-1.1,0.6-2.5,0.2-3.2-0.9c0,0,0,0,0,0c-2.7-5-4.7-8.7-6.2-11.4
				c-1.1-2-1.9-3.6-2.5-4.7c-2.1,1.3-4.4,2.5-6.7,3.7c2.4,3.8,4,6.9,5.7,10.1c1.3,2.4,2.6,4.9,4.4,8c0,0,0,0,0,0
				c0.6,1.1,0.2,2.5-0.9,3.2c-1.1,0.6-2.5,0.3-3.2-0.9c-1.8-3.1-3.1-5.6-4.5-8.1c-1.8-3.4-3.4-6.4-5.8-10.1
				c-2.5,1.3-4.9,2.6-6.7,3.7c0.5,0.8,1.1,1.9,1.7,2.9c3,5.2,7.6,13.1,9,16.7C41.5,438.5,40.9,439.9,39.7,440.3z"/>
            <path id="R" d="M17.7,405.5c-0.9-0.1-1.7-0.7-2-1.6c-0.1-0.3-0.1-0.6-0.1-1c0.4-3.4,1.9-6.5,3.4-9.5c1.4-2.8,2.8-5.5,3-8.3
				c-0.5-1.3-1.1-2.8-1.6-4.4c-0.3-1-0.7-2-1-3.1c-2.5,0.8-4.9,1.6-7.1,2.3c-1.2,0.4-2.5-0.2-2.9-1.5c-0.4-1.2,0.2-2.5,1.5-2.9
				c3-1,6.2-2,9.6-3.1c4.6-1.5,9.3-3,13.3-4.4c0.2-0.1,0.3-0.1,0.5-0.1c1.1-0.6,2.5-0.1,3.1,1c5.4,10.3,7.1,18.1,5.1,23.1
				c-0.9,2.3-2.7,4-5,4.8c-2.5,0.8-4.9,0.7-7.1-0.5c-1.9-1-3.6-2.6-5.2-5.1c-0.6,1.4-1.3,2.8-2,4.2c-1.4,2.7-2.7,5.3-2.9,7.8
				C20.1,404.7,19,405.6,17.7,405.5z M32.5,392.3c1.1,0.6,2.2,0.6,3.5,0.2c1.1-0.4,1.8-1,2.2-2.1c0.6-1.6,1.4-6.4-4-17.5
				c-3.2,1.1-6.7,2.2-10.3,3.4C26.6,385.4,29.5,390.8,32.5,392.3z"/>
            <path id="F" d="M32.3,361.6c-0.7-0.1-1.4-0.5-1.8-1.1c-0.4-0.8-0.5-1.6-0.6-2.4l0-0.3c-0.2-1.4-0.4-3-0.6-4.9
				c-0.1-0.5-0.1-0.9-0.1-1.4c0-0.2,0-0.4,0-0.7c0-0.4-0.1-0.9-0.2-1.3c0-0.2-0.1-0.4-0.1-0.7c-0.2-1.1-0.3-2.3-0.5-3.4l0-0.3
				c0,0,0-0.1,0-0.2c0-0.1,0-0.2,0-0.2l0-0.1c0-0.3,0-0.6-0.1-0.8l0-0.2c0-0.3,0-0.5-0.1-0.8c0-0.4-0.1-0.8-0.1-1.2
				c0-0.4-0.1-0.8-0.2-1.3c0-0.2-0.1-0.5-0.1-0.7c0,0,0,0,0-0.1c0-0.1,0-0.3-0.1-0.4c-0.1-0.3-0.1-0.7-0.1-1c-0.1-0.3-0.1-0.7-0.1-1
				l0-0.1c0-0.3,0-0.7-0.2-0.8c-0.1-0.1-0.3,0-0.5,0c-0.3,0.1-0.5,0.1-0.7,0.1c-0.1,0-0.2,0-0.3,0c-1.4,0.2-2.8,0.4-4.2,0.6
				c-0.2,0-0.4,0-0.6,0.1c-0.5,0-0.9,0.1-1.4,0.2c-0.2,0.1-0.2,0.2-0.1,0.5l0,0.1c0,0.2,0,0.4,0.1,0.5c0,0.2,0,0.3,0.1,0.5
				c0.1,0.3,0.1,0.6,0.1,0.9l0,0.2c0.1,0.5,0.1,1,0.1,1.4c0,0.2,0,0.4,0,0.6c0,0.4,0.1,0.8,0.2,1.3c0.1,0.6,0.2,1.1,0.2,1.7
				c0,0.4,0.1,0.7,0.1,1.1l0,0.1c0.1,0.7,0.2,1.4,0.3,2.1c0,0.8,0.1,1.5,0.2,2.2c0.1,0.7,0.2,1.4,0.3,2.1c0,0.2,0,0.4,0,0.7
				c0,0.4,0,0.8,0.1,1.2c0.1,0.4,0.1,0.8,0.2,1.2c0,0.2,0.1,0.5,0.1,0.7l0,0.2c0.2,1,0.4,2.3-0.3,3.2c-0.1,0.1-0.4,0.5-0.8,0.7
				c-0.5,0.3-1,0.3-1.4,0.2c-0.5-0.1-0.8-0.4-1.2-0.8c-0.5-0.5-0.6-1.1-0.6-1.8c0-0.2,0-0.3,0-0.5c0-0.2-0.1-0.4-0.1-0.6
				c-0.1-0.3-0.1-0.7-0.1-1c0-0.2,0-0.4-0.1-0.5c0-0.2-0.1-0.3-0.1-0.5c0-0.1,0-0.2,0-0.3c0-0.2,0-0.4-0.1-0.6
				c-0.1-0.4-0.1-0.7-0.1-1.1c0-0.3,0-0.7-0.1-1.1c0-0.2-0.1-0.3-0.1-0.5c-0.1-0.2-0.1-0.5-0.1-0.7c0-0.2,0-0.4,0-0.6
				c0-0.3,0-0.6-0.1-0.9l-0.1-0.3c-0.1-0.4-0.1-0.7-0.2-1.1c0-0.8-0.2-1.7-0.3-2.5c-0.1-0.6-0.2-1.2-0.2-1.8c0-0.4-0.1-0.8-0.1-1.2
				c-0.1-1.1-0.2-2.1-0.4-3.2c0-0.1,0-0.1,0-0.2c-0.1-0.3-0.1-0.7-0.2-1c0-0.2-0.1-0.3-0.3-0.2l-0.2,0c-0.4,0-0.7,0-1,0.1
				c-0.3,0.1-0.7,0.1-1,0.1c-0.2,0-0.4,0-0.6,0.1c-0.5,0.1-1,0.1-1.4,0.2c-0.3,0-0.5,0.1-0.8,0.1c-0.4,0.1-0.9,0.1-1.3,0.1
				c-0.3,0-0.7,0-1,0.1c-0.7,0.1-1.3,0.2-1.9,0.3c-0.5,0.1-1.2,0.2-1.7,0c-0.5-0.1-1-0.5-1.3-1.1c-0.1-0.2-0.2-0.5-0.2-0.7
				c0-0.3,0-0.7,0.1-1c0.1-0.2,0.2-0.4,0.3-0.6l0-0.1c0.2-0.4,0.7-0.7,1.3-0.8l0.1,0c0.4,0,0.7-0.1,1.1-0.2l0.2,0
				c0.3-0.1,0.6-0.1,0.9-0.1c0.1,0,0.3,0,0.4,0c0.2,0,0.4,0,0.6-0.1l0.6-0.1c0.8-0.1,1.6-0.3,2.5-0.4c0.3,0,0.5,0,0.8-0.1
				c0.3,0,0.6,0,1-0.1l0.2,0c0.5-0.1,1-0.2,1.4-0.2c0.2,0,0.4-0.1,0.6-0.1c0.3-0.1,0.6-0.1,1-0.1c0.5,0,1-0.1,1.3-0.1
				c0.2,0,0.4-0.1,0.6-0.1c0.2,0,0.3-0.1,0.5-0.1c0.9-0.1,1.8-0.2,2.6-0.3c0.5-0.1,0.9-0.1,1.4-0.2c0.7-0.1,1.4-0.2,2.1-0.3
				c0.4-0.1,0.7-0.1,1.1-0.2c0.2,0,0.5-0.1,0.7-0.1c0.3-0.1,0.6-0.1,0.9-0.1c0.2,0,0.4,0,0.6-0.1c0.5,0,1-0.1,1.5-0.2
				c0.9-0.2,1.9-0.2,2.6,0.7c0.5,0.6,0.6,1.3,0.7,2c0.1,0.4,0.1,0.9,0.1,1.3c0,0.6,0.1,1.3,0.2,1.9c0.1,0.6,0.2,1.2,0.2,1.8
				c0.1,0.5,0.1,1.1,0.2,1.6c0.1,0.5,0.1,1,0.2,1.5l0,0.4c0,0,0,0,0,0c0,0.2,0.1,0.5,0.1,0.7c0,0.2,0.1,0.4,0.1,0.6
				c0,0.2,0,0.5,0.1,0.7c0,0.2,0,0.4,0.1,0.6c0,0.1,0,0.3,0.1,0.4c0,0.2,0.1,0.4,0.1,0.6c0,0.2,0,0.5,0,0.7c0,0.2,0,0.5,0,0.7
				c0,0.3,0.1,0.6,0.1,0.8c0,0.2,0.1,0.4,0.1,0.6c0.1,0.4,0.1,0.8,0.2,1.3l0.1,0.4c0.1,0.7,0.2,1.5,0.2,2.2c0,0.3,0,0.7,0.1,1
				c0,0.5,0.1,0.9,0.2,1.4c0.1,0.4,0.1,0.8,0.2,1.2c0,0.1,0,0.2,0,0.2c0,0.2,0,0.3,0.1,0.5c0.1,0.4,0.2,0.9,0.2,1.3l0,0.1
				c0,0.2,0.1,0.4,0,0.6c0,0.6-0.2,1.2-0.6,1.6C33.7,361.2,32.9,361.6,32.3,361.6z"/>
		</g>
	</g>
        <g id="Hen_2_">
		<path id="Beak_2_" class="st1" d="M55.4,253.1c8.3-28.4,22.7-54.2,41.7-76c0.5-0.6,0.1-1.5-0.7-1.5L28,180.5c-0.6,0-1,0.6-0.8,1.2
			l26.5,71.5C54.1,254,55.2,253.9,55.4,253.1z"/>
            <path id="Comb_2_" class="st1" d="M306.5,40c6.7-11.5,3-26.6-8.2-33.8c-11-7.1-25.6-3.9-37,0.5c-11.5,4.4-21.9,11.5-31.1,19.6
			c-1.3,1.2-18.5,17.7-17.7,18.5c1.3-5.9,3.1-18.3-6.5-17.5c-3.2,0.2-6.1,2.5-8.5,4.4c-8.9,7.2-15.7,17.3-21.8,26.8
			c-13.9,21.4-27.9,46.4-32.7,71.8c-0.2,1.3-1.4,4.9-0.8,6c1.4,2.8,8.2-2.4,10.9-3.7c9.2-4.2,19.1-7,29.2-8.3
			c21.1-2.6,42.9,1.6,61.5,11.9c9.6,5.3,17.8,12.2,25.2,20.2c7.4,8,15.4,10.9,26.3,11c19.8,0.1,41.6-10.1,53.9-25.6
			c14.3-18,14.5-44.2,0.4-62.4c-14.4-18.5-40-23.8-62-18.9c1.9-0.5,5.7-4.9,7.1-6.3C299.3,50,303.4,45.3,306.5,40"/>
            <circle id="Eye_2_" cx="170.8" cy="195.9" r="13.6"/>
            <path id="Belly_2_" class="st1" d="M433.6,404.8c-36.8,69.8-109.8,113.9-189.1,111c-65.7-2.5-132.8-40.9-169.4-95.4
			c-12.6-18.7-21.7-40.1-26.6-62.1c-1.8-8.2-3.1-16.5-3.7-24.9c-0.4-5.3-0.6-10.5-0.6-15.8c0-1.7-0.8-6,0.5-7.1
			c7-6.3,6.6,11.1,6.7,12.5c2.1,20.3,7,40.4,14.4,59.5c16,41,44.5,78.8,83.1,100.8c21.6,12.4,45.7,19.7,70.4,22.9
			c75.2,9.6,150.7-23.9,193.1-87.1c4.2-6.3,7.9-12.8,11.5-19.4C427.1,401.3,430.3,403.1,433.6,404.8z"/>
            <path id="Heart_1_" class="st2" d="M325.4,252.3c10.2-21.9,24.3-46.6,48.2-55.5c28.1-10.4,49.2,12,57.8,36.7
			c9.1,26,12,56.1,11.2,83.5c-0.8,28.3-7.5,56.4-19.3,82.2c-13.1,28.7-32.5,53.8-56.1,74.7c61.6-35.8,96.7-109.9,91.2-180.2
			c-2.6-32.8-13.7-72.2-40.3-93.8c-29-23.5-64.8-12.7-89.4,11.4c-27.7,27.2-39.9,63.3-42.1,101.4c0.2-2.7-10.2-9.1-12-10.3
			c-5.7-3.9-12-7.1-18.5-9.5c-6.9-2.5-13.8-3.6-21-4.8c-7.4-1.2-14.3-2.7-21.8-1.2c-12.7,2.5-23.6,11.5-30.5,22.3
			c-7.7,12-8.4,25.4-5.8,39.2c10.6,56.8,74.8,87,126.3,95.3c31.6,5,67.4,3.9,95.6-12.8c-32.4,12.5-69.7,9.1-102.3-0.6
			c-34.1-10.2-70.5-28.8-90.7-59.2c-9.9-14.8-16.9-35.2-10.3-52.6c5.1-13.6,19.3-27.7,34.7-27.3c15.6,0.4,31.1,15,40.9,25.9
			c5.3,5.9,10.1,12.3,13.8,19.3c2,3.7,4.7,17,8.8,17.6c3.4,0.4,9.3-3,12.7-3.9c4.1-1.1,6.2-0.7,6.6-4.7c0.4-4.2-1.8-9.7-2.3-14
			c-0.6-5.3-0.8-10.6-0.7-15.9C310.3,293.4,316.2,272,325.4,252.3z"/>
	</g>
</g>
</svg>
